<?xml version="1.0" encoding="UTF-8" standalone="no"?>
<!-- Created with Inkscape (http://www.inkscape.org/) -->

<svg
   version="1.1"
   id="svg1"
   width="1945.2474"
   height="2086.1667"
   viewBox="0 0 1945.2475 2086.1667"
   sodipodi:docname="steenrod squares.svg"
   inkscape:version="1.4 (e7c3feb100, 2024-10-09)"
   inkscape:export-filename="steenrod squares.png"
   inkscape:export-xdpi="96"
   inkscape:export-ydpi="96"
   xmlns:inkscape="http://www.inkscape.org/namespaces/inkscape"
   xmlns:sodipodi="http://sodipodi.sourceforge.net/DTD/sodipodi-0.dtd"
   xmlns="http://www.w3.org/2000/svg"
   xmlns:svg="http://www.w3.org/2000/svg">
  <defs
     id="defs1">
    <inkscape:path-effect
       effect="skeletal"
       id="path-effect16"
       is_visible="true"
       lpeversion="1"
       pattern="#path16"
       copytype="repeated_stretched"
       prop_scale="0.95"
       scale_y_rel="true"
       spacing="-1.7"
       normal_offset="0"
       tang_offset="0"
       prop_units="false"
       vertical_pattern="true"
       hide_knot="false"
       fuse_tolerance="0" />
    <inkscape:path-effect
       effect="skeletal"
       id="path-effect14"
       is_visible="true"
       lpeversion="1"
       pattern="#path16"
       copytype="repeated_stretched"
       prop_scale="0.95"
       scale_y_rel="true"
       spacing="-1.7"
       normal_offset="0"
       tang_offset="0"
       prop_units="false"
       vertical_pattern="true"
       hide_knot="false"
       fuse_tolerance="0" />
    <inkscape:path-effect
       effect="skeletal"
       id="path-effect6"
       is_visible="true"
       lpeversion="1"
       pattern="#path16"
       copytype="repeated_stretched"
       prop_scale="0.95"
       scale_y_rel="true"
       spacing="-1.7"
       normal_offset="0"
       tang_offset="0"
       prop_units="false"
       vertical_pattern="true"
       hide_knot="false"
       fuse_tolerance="0" />
    <inkscape:path-effect
       effect="skeletal"
       id="path-effect4"
       is_visible="true"
       lpeversion="1"
       pattern="#path16"
       copytype="repeated_stretched"
       prop_scale="1"
       scale_y_rel="true"
       spacing="-1.7"
       normal_offset="0"
       tang_offset="0"
       prop_units="false"
       vertical_pattern="true"
       hide_knot="false"
       fuse_tolerance="0" />
    <inkscape:path-effect
       effect="skeletal"
       id="path-effect2"
       is_visible="true"
       lpeversion="1"
       pattern="#path16"
       copytype="repeated_stretched"
       prop_scale="0.95"
       scale_y_rel="true"
       spacing="-1.7"
       normal_offset="0"
       tang_offset="0"
       prop_units="false"
       vertical_pattern="true"
       hide_knot="false"
       fuse_tolerance="0" />
    <inkscape:path-effect
       effect="skeletal"
       id="path-effect56"
       is_visible="true"
       lpeversion="1"
       pattern="#path16"
       copytype="repeated_stretched"
       prop_scale="0.95"
       scale_y_rel="true"
       spacing="-3.2"
       normal_offset="0"
       tang_offset="0"
       prop_units="false"
       vertical_pattern="true"
       hide_knot="false"
       fuse_tolerance="0" />
    <inkscape:path-effect
       effect="skeletal"
       id="path-effect55"
       is_visible="true"
       lpeversion="1"
       pattern="m 4.4185703,-2.495875 c 0,-1.0546875 -0.8789062,-1.921875 -1.921875,-1.921875 -1.078125,0 -1.94531249,0.8789063 -1.94531249,1.921875 0,1.0664063 0.86718749,1.93359375 1.94531249,1.93359375 1.0429688,0 1.921875,-0.86718745 1.921875,-1.93359375 z m 0,0"
       copytype="repeated_stretched"
       prop_scale="1.02"
       scale_y_rel="false"
       spacing="0"
       normal_offset="0"
       tang_offset="0"
       prop_units="false"
       vertical_pattern="true"
       hide_knot="false"
       fuse_tolerance="0.7" />
    <inkscape:path-effect
       effect="skeletal"
       id="path-effect54"
       is_visible="true"
       lpeversion="1"
       pattern="#path19"
       copytype="repeated_stretched"
       prop_scale="1"
       scale_y_rel="false"
       spacing="0"
       normal_offset="0"
       tang_offset="0"
       prop_units="false"
       vertical_pattern="true"
       hide_knot="false"
       fuse_tolerance="0" />
    <inkscape:path-effect
       effect="skeletal"
       id="path-effect53"
       is_visible="true"
       lpeversion="1"
       pattern="m 4.4185703,-2.495875 c 0,-1.0546875 -0.8789062,-1.921875 -1.921875,-1.921875 -1.078125,0 -1.94531249,0.8789063 -1.94531249,1.921875 0,1.0664063 0.86718749,1.93359375 1.94531249,1.93359375 1.0429688,0 1.921875,-0.86718745 1.921875,-1.93359375 z m 0,0"
       copytype="repeated"
       prop_scale="1"
       scale_y_rel="true"
       spacing="0.3"
       normal_offset="0"
       tang_offset="0"
       prop_units="true"
       vertical_pattern="false"
       hide_knot="false"
       fuse_tolerance="0" />
    <inkscape:path-effect
       effect="skeletal"
       id="path-effect52"
       is_visible="true"
       lpeversion="1"
       pattern="m 4.4185703,-2.495875 c 0,-1.0546875 -0.8789062,-1.921875 -1.921875,-1.921875 -1.078125,0 -1.94531249,0.8789063 -1.94531249,1.921875 0,1.0664063 0.86718749,1.93359375 1.94531249,1.93359375 1.0429688,0 1.921875,-0.86718745 1.921875,-1.93359375 z m 0,0"
       copytype="repeated_stretched"
       prop_scale="1"
       scale_y_rel="false"
       spacing="0"
       normal_offset="-15.8"
       tang_offset="1"
       prop_units="false"
       vertical_pattern="true"
       hide_knot="false"
       fuse_tolerance="0" />
    <inkscape:path-effect
       effect="skeletal"
       id="path-effect51"
       is_visible="true"
       lpeversion="1"
       pattern="#path16"
       copytype="repeated_stretched"
       prop_scale="1"
       scale_y_rel="false"
       spacing="-6"
       normal_offset="0"
       tang_offset="0"
       prop_units="false"
       vertical_pattern="true"
       hide_knot="false"
       fuse_tolerance="1.9" />
    <inkscape:path-effect
       effect="skeletal"
       id="path-effect50"
       is_visible="true"
       lpeversion="1"
       pattern="#path16"
       copytype="repeated_stretched"
       prop_scale="1.12"
       scale_y_rel="false"
       spacing="0"
       normal_offset="0"
       tang_offset="0"
       prop_units="false"
       vertical_pattern="false"
       hide_knot="false"
       fuse_tolerance="0" />
    <inkscape:path-effect
       effect="skeletal"
       id="path-effect49"
       is_visible="true"
       lpeversion="1"
       pattern="m 4.4185703,-2.495875 c 0,-1.0546875 -0.8789062,-1.921875 -1.921875,-1.921875 -1.078125,0 -1.94531249,0.8789063 -1.94531249,1.921875 0,1.0664063 0.86718749,1.93359375 1.94531249,1.93359375 1.0429688,0 1.921875,-0.86718745 1.921875,-1.93359375 z m 0,0"
       copytype="repeated_stretched"
       prop_scale="10"
       scale_y_rel="true"
       spacing="0.3"
       normal_offset="0"
       tang_offset="0"
       prop_units="false"
       vertical_pattern="false"
       hide_knot="false"
       fuse_tolerance="0" />
    <inkscape:path-effect
       effect="skeletal"
       id="path-effect56-2"
       is_visible="true"
       lpeversion="1"
       pattern="#path16"
       copytype="repeated_stretched"
       prop_scale="0.95"
       scale_y_rel="true"
       spacing="-3.2"
       normal_offset="0"
       tang_offset="0"
       prop_units="false"
       vertical_pattern="true"
       hide_knot="false"
       fuse_tolerance="0" />
    <inkscape:path-effect
       effect="skeletal"
       id="path-effect56-2-9"
       is_visible="true"
       lpeversion="1"
       pattern="#path16"
       copytype="repeated_stretched"
       prop_scale="0.95"
       scale_y_rel="true"
       spacing="-1.7"
       normal_offset="0"
       tang_offset="0"
       prop_units="false"
       vertical_pattern="true"
       hide_knot="false"
       fuse_tolerance="0" />
  </defs>
  <sodipodi:namedview
     id="namedview1"
     pagecolor="#ffffff"
     bordercolor="#000000"
     borderopacity="0.25"
     inkscape:showpageshadow="2"
     inkscape:pageopacity="0.0"
     inkscape:pagecheckerboard="0"
     inkscape:deskcolor="#d1d1d1"
     showguides="true"
     inkscape:zoom="0.3054536"
     inkscape:cx="2152.5364"
     inkscape:cy="1753.1304"
     inkscape:window-width="2256"
     inkscape:window-height="1504"
     inkscape:window-x="0"
     inkscape:window-y="0"
     inkscape:window-maximized="1"
     inkscape:current-layer="g1"
     inkscape:export-bgcolor="#ffffffff">
    <inkscape:page
       x="1837.5865"
       y="1220.8433"
       inkscape:label="1"
       id="page1"
       width="399.49405"
       height="421.74185"
       margin="0"
       bleed="0" />
  </sodipodi:namedview>
  <g
     inkscape:groupmode="layer"
     id="layer1"
     inkscape:label="2"
     transform="translate(780.73812,837.7734)" />
  <g
     inkscape:groupmode="layer"
     id="layer2"
     inkscape:label="Top"
     transform="translate(780.73812,837.7734)">
    <g
       id="g1"
       inkscape:groupmode="layer"
       inkscape:label="1"
       transform="translate(1586.6782,401.00019)">
      <path
         id="path6"
         d="m 4.4185703,-2.4971797 c 0,-1.0546875 -0.8789062,-1.921875 -1.921875,-1.921875 -1.078125,0 -1.94531249,0.8789063 -1.94531249,1.921875 0,1.0664063 0.86718749,1.93359376 1.94531249,1.93359376 1.0429688,0 1.921875,-0.86718746 1.921875,-1.93359376 z"
         style="fill:#000000;fill-opacity:1;fill-rule:nonzero;stroke:#000000;stroke-width:4;stroke-dasharray:none;stroke-opacity:1"
         aria-label="•"
         sodipodi:nodetypes="sssss"
         transform="matrix(1.3333333,0,0,1.3333333,20.854667,208.45067)" />
      <path
         id="path7"
         d="m 4.4185703,-2.4948828 c 0,-1.0546875 -0.8789062,-1.921875 -1.921875,-1.921875 -1.078125,0 -1.94531249,0.8789062 -1.94531249,1.921875 0,1.0664062 0.86718749,1.93359374 1.94531249,1.93359374 1.0429688,0 1.921875,-0.86718754 1.921875,-1.93359374 z"
         style="fill:#000000;fill-opacity:1;fill-rule:nonzero;stroke:#000000;stroke-width:4;stroke-dasharray:none;stroke-opacity:1"
         aria-label="•"
         sodipodi:nodetypes="sssss"
         transform="matrix(1.3333333,0,0,1.3333333,20.854667,247.98667)" />
      <path
         id="path8"
         d="m 4.4185703,-2.4965156 c 0,-1.0546875 -0.8789062,-1.921875 -1.921875,-1.921875 -1.078125,0 -1.94531249,0.8789062 -1.94531249,1.921875 0,1.0664062 0.86718749,1.93359372 1.94531249,1.93359372 1.0429688,0 1.921875,-0.86718752 1.921875,-1.93359372 z"
         style="fill:#000000;fill-opacity:1;fill-rule:nonzero;stroke:#000000;stroke-width:4;stroke-dasharray:none;stroke-opacity:1"
         aria-label="•"
         transform="matrix(1.3333333,0,0,1.3333333,20.854667,287.524)"
         sodipodi:nodetypes="sssss" />
      <path
         id="path9"
         d="m 4.4185703,-2.4952187 c 0,-1.0546875 -0.8789062,-1.921875 -1.921875,-1.921875 -1.078125,0 -1.94531249,0.8789062 -1.94531249,1.921875 0,1.0664062 0.86718749,1.9335937 1.94531249,1.9335937 1.0429688,0 1.921875,-0.8671875 1.921875,-1.9335937 z"
         style="fill:#000000;fill-opacity:1;fill-rule:nonzero;stroke:#000000;stroke-width:4;stroke-dasharray:none;stroke-opacity:1"
         aria-label="•"
         transform="matrix(1.3333333,0,0,1.3333333,20.854667,327.06133)"
         sodipodi:nodetypes="sssss" />
      <path
         id="path10"
         d="m 4.4185703,-2.4958516 c 0,-1.0546875 -0.8789062,-1.921875 -1.921875,-1.921875 -1.078125,0 -1.94531249,0.8789063 -1.94531249,1.921875 0,1.0664063 0.86718749,1.93359379 1.94531249,1.93359379 1.0429688,0 1.921875,-0.86718749 1.921875,-1.93359379 z"
         style="fill:#000000;fill-opacity:1;fill-rule:nonzero;stroke:#000000;stroke-width:4;stroke-dasharray:none;stroke-opacity:1"
         aria-label="•"
         transform="matrix(1.3333333,0,0,1.3333333,20.854667,366.59733)"
         sodipodi:nodetypes="sssss" />
      <path
         id="path11"
         d="m 4.4185703,-2.4974844 c 0,-1.0546875 -0.8789062,-1.921875 -1.921875,-1.921875 -1.078125,0 -1.94531249,0.8789063 -1.94531249,1.921875 0,1.0664063 0.86718749,1.93359378 1.94531249,1.93359378 1.0429688,0 1.921875,-0.86718748 1.921875,-1.93359378 z"
         style="fill:#000000;fill-opacity:1;fill-rule:nonzero;stroke:#000000;stroke-width:4;stroke-dasharray:none;stroke-opacity:1"
         aria-label="•"
         transform="matrix(1.3333333,0,0,1.3333333,20.854667,406.13467)"
         sodipodi:nodetypes="sssss" />
      <path
         id="path12"
         d="m 4.4185703,-2.4961875 c 0,-1.0546875 -0.8789062,-1.921875 -1.921875,-1.921875 -1.078125,0 -1.94531249,0.8789063 -1.94531249,1.921875 0,1.0664063 0.86718749,1.93359375 1.94531249,1.93359375 1.0429688,0 1.921875,-0.86718745 1.921875,-1.93359375 z"
         style="fill:#000000;fill-opacity:1;fill-rule:nonzero;stroke:#000000;stroke-width:4;stroke-dasharray:none;stroke-opacity:1"
         aria-label="•"
         transform="matrix(1.3333333,0,0,1.3333333,20.854667,445.672)"
         sodipodi:nodetypes="sssss" />
      <g
         id="g53"
         style="fill:none;fill-opacity:1;stroke:#000000;stroke-width:11.4;stroke-dasharray:none;stroke-opacity:1"
         transform="matrix(1.7782545,0,0,1.7782545,-38.355603,-67.334209)">
        <g
           id="g51"
           style="fill:none;fill-opacity:1;stroke:#000000;stroke-width:11.4;stroke-dasharray:none;stroke-opacity:1">
          <path
             id="path16"
             style="fill:none;fill-opacity:1;stroke:#000000;stroke-width:10.1527;stroke-linecap:butt;stroke-linejoin:miter;stroke-miterlimit:10;stroke-dasharray:none;stroke-opacity:1"
             transform="matrix(1.3333333,0,0,-1.3333333,24.176,225.26667)"
             d="M 0,50.53897 V 68.07349 M 4.99495,80.1921 c 12.93803,14.97497 12.93803,32.76612 0.47812,47.18763 M 0,109.8452 v 17.53453 M -4.99495,109.8452 c -12.93803,14.97499 -12.93803,32.76613 -0.47812,47.18764 M 1.9275705,74.414848 c 0,1.054687 -0.8789062,1.921875 -1.92187501,1.921875 -1.07812499,0 -1.94531249,-0.878906 -1.94531249,-1.921875 0,-1.066406 0.8671875,-1.933594 1.94531249,-1.933594 1.04296881,0 1.92187501,0.867188 1.92187501,1.933594 z m 0,29.651372 c 0,1.05468 -1.01589978,1.91912 -1.92187501,1.92187 -0.91151622,0.003 -1.94531249,-0.87891 -1.94531249,-1.92187 0,-1.06641 0.8671875,-1.9336 1.94531249,-1.9336 1.04296881,0 1.92187501,0.86719 1.92187501,1.9336 z m 0,29.65429 c 0,1.05469 -0.8789062,1.92188 -1.92187501,1.92188 -1.07812499,0 -1.94531249,-0.87891 -1.94531249,-1.92188 0,-1.0664 0.8671875,-1.93359 1.94531249,-1.93359 1.04296881,0 1.92187501,0.86719 1.92187501,1.93359 z m 0,29.65137 c 0,1.05469 -0.8789062,1.92188 -1.92187501,1.92188 -1.07812499,0 -1.94531249,-0.87891 -1.94531249,-1.92188 0,-1.0664 0.8671875,-1.93359 1.94531249,-1.93359 1.04296881,0 1.92187501,0.86719 1.92187501,1.93359 z m 0,-118.611327 c 0,1.054687 -0.8789062,1.921875 -1.92187501,1.921875 -1.07812499,0 -1.94531249,-0.878906 -1.94531249,-1.921875 0,-1.066406 0.8671875,-1.933594 1.94531249,-1.933594 1.04296881,0 1.92187501,0.867188 1.92187501,1.933594 z"
             sodipodi:nodetypes="ccccccccssssssassssssssssssssssss" />
          <g
             id="g55"
             style="fill:none;fill-opacity:1;stroke:#000000;stroke-width:11.4;stroke-dasharray:none;stroke-opacity:1" />
        </g>
      </g>
      <path
         id="path17"
         d="M -4.99495,-8.76724 C -17.93298,6.20773 -17.93298,23.99889 -5.47307,38.42038"
         style="fill:none;stroke:#000000;stroke-width:1.59392;stroke-linecap:butt;stroke-linejoin:miter;stroke-miterlimit:10;stroke-dasharray:none;stroke-opacity:1"
         transform="matrix(1.3333333,0,0,-1.3333333,24.176,225.26667)"
         sodipodi:nodetypes="cc" />
      <path
         id="path18"
         d="M 104.60202,322.69976 V 299.32043"
         style="fill:none;stroke:#000000;stroke-width:2.12523;stroke-linecap:butt;stroke-linejoin:miter;stroke-miterlimit:10;stroke-dasharray:none;stroke-opacity:1"
         sodipodi:nodetypes="cc" />
      <path
         id="path19"
         d="m 4.99495,-38.42036 c 12.93803,14.975 12.93803,32.76614 0.47812,47.18762"
         style="fill:none;stroke:#000000;stroke-width:1.59392;stroke-linecap:butt;stroke-linejoin:miter;stroke-miterlimit:10;stroke-dasharray:none;stroke-opacity:1"
         transform="matrix(1.3333333,0,0,-1.3333333,24.176,225.26667)"
         sodipodi:nodetypes="cc" />
      <path
         id="path20"
         d="m 0,-68.07347 v 17.53451"
         style="fill:none;stroke:#000000;stroke-width:1.59392;stroke-linecap:butt;stroke-linejoin:miter;stroke-miterlimit:10;stroke-dasharray:none;stroke-opacity:1"
         sodipodi:nodetypes="cc"
         transform="matrix(1.3333333,0,0,-1.3333333,24.176,225.26667)" />
      <path
         id="path21"
         d="m -4.99495,-127.37971 c -12.93803,14.97501 -12.93803,32.76615 -0.47812,47.18763"
         style="fill:none;stroke:#000000;stroke-width:1.59392;stroke-linecap:butt;stroke-linejoin:miter;stroke-miterlimit:10;stroke-dasharray:none;stroke-opacity:1"
         transform="matrix(1.3333333,0,0,-1.3333333,24.176,225.26667)"
         sodipodi:nodetypes="cc" />
      <path
         id="path22"
         d="m 0,-127.37971 v 17.53453"
         style="fill:none;stroke:#000000;stroke-width:1.59392;stroke-linecap:butt;stroke-linejoin:miter;stroke-miterlimit:10;stroke-dasharray:none;stroke-opacity:1"
         transform="matrix(1.3333333,0,0,-1.3333333,24.176,225.26667)"
         sodipodi:nodetypes="cc" />
      <path
         id="path23"
         d="m 4.99495,-157.03282 c 12.93803,14.975 12.93803,32.76616 0.47812,47.18764"
         style="fill:none;stroke:#000000;stroke-width:1.59392;stroke-linecap:butt;stroke-linejoin:miter;stroke-miterlimit:10;stroke-dasharray:none;stroke-opacity:1"
         transform="matrix(1.3333333,0,0,-1.3333333,24.176,225.26667)"
         sodipodi:nodetypes="cc" />
      <path
         style="fill:none;stroke:#000000;stroke-width:15.12;stroke-dasharray:none;stroke-opacity:1"
         d="m 206.83166,388.39742 c 2.94652,0.65474 5.90189,1.25561 8.89731,1.61506 4.01544,0.48185 8.07301,0.49151 12.11691,0.43859 5.19444,-0.068 10.38517,-0.33588 15.56496,-0.73145 l 1e-5,0 c 5.19449,-0.39669 10.38036,-0.922 15.53918,-1.64772 4.04924,-0.56963 8.1019,-1.20769 12.03957,-2.31024 2.28987,-0.64117 4.41171,-1.7162 6.52671,-2.8182 m 31.75806,-23.01548 c -0.14661,-1.09183 -0.24129,-1.97614 -0.31444,-2.60857 -0.62326,-4.44371 -0.78169,-8.71094 -0.92605,-12.37375 -1.25761,-8.74025 -3.29399,-16.52698 -6.11876,-22.71194 -2.64121,-7.54684 -5.89447,-16.45662 -7.77396,-28.33145 -0.7711,-4.40947 -1.38481,-8.74092 -1.87996,-12.96864 0,0 0,-10e-6 0,-10e-6 -0.90614,-7.80103 -1.40009,-15.6155 -1.49138,-23.40347 -0.0967,-8.17217 0.25755,-16.26113 1.01376,-24.24064 0.29761,-3.15765 0.66493,-6.22583 1.07698,-9.21635 0,0 0,-1e-5 0,-1e-5 0.24213,-2.12346 0.58062,-3.71213 0.90354,-4.83667 0,0 0,-1e-5 0,-1e-5 1.77019,-16.13131 5.27231,-32.12431 10.60497,-47.59158 m 20.42393,69.64454 c -0.18253,-3.31943 -0.37224,-6.63844 -0.57244,-9.95685 l 0,0 c -0.19135,-3.17182 -0.3911,-6.3432 -0.62339,-9.51229 -0.149,-2.03295 -0.29276,-4.06737 -0.53506,-6.09132 -1.82967,-15.28316 -3.78879,-30.54999 -5.83125,-45.806 m 19.38733,70.71619 c 1.46297,-3.39488 2.82809,-6.8287 4.09182,-10.30139 1.18796,-3.25917 2.28473,-6.58784 3.26363,-10.01099 0.63657,-2.04579 1.20846,-4.44088 1.59698,-7.29247 0,0 0,-2e-5 0,-2e-5 8.7726,-40.32876 5.21323,-82.22268 -8.71383,-119.541156 -6.03758,-16.426008 -14.33772,-32.250361 -25.05452,-46.20311 M 300.07768,369.22014 c 2.75721,-1.0378 5.5328,-1.0663 7.28429,-0.23391 0.60607,0.54523 1.12658,0.75183 1.57707,1.47919 0.37941,0.6126 0.54708,1.44194 0.072,2.32637 -0.64048,1.9201 -2.80313,3.91212 -5.70074,5.00555 -4.18405,1.57888 -8.22475,0.77253 -9.07127,-1.62093 -0.83117,-2.35004 1.85153,-5.45554 5.83864,-6.95627 z m 21.36855,-104.0747 c -0.21176,-4.30848 2.01504,-7.96366 4.15964,-8.08335 2.15805,-0.1214 4.78854,3.36289 4.99842,7.63324 0.21457,4.36564 -1.66961,8.01195 -4.22277,8.13454 -2.47018,0.11861 -4.72115,-3.32738 -4.93529,-7.68443 z M 309.18809,144.82866 c -0.59467,-4.27307 0.97489,-8.0781 3.42387,-8.4219 2.53147,-0.35537 5.06879,2.92497 5.65787,7.15806 0.6023,4.32819 -0.95004,8.12955 -3.48238,8.4784 -2.44966,0.33745 -4.99813,-2.89435 -5.59936,-7.21456 z M 288.83611,25.751377 c -1.08333,-4.126969 -0.0466,-8.067595 2.33188,-8.744412 2.46073,-0.700228 5.43234,2.220051 6.53305,6.418971 1.12455,4.289861 -0.0442,8.242067 -2.52608,8.842565 -2.40207,0.581179 -5.24349,-2.344333 -6.33885,-6.517124 z M 188.82145,381.19223 c 0.006,-0.0299 0.0139,-0.0664 0.0239,-0.10897 -0.5779,-0.48434 -0.56575,-0.46172 -0.28975,0.19525 0.50331,0.60278 1.26829,1.22621 1.8527,1.94835 0.59408,0.73407 0.97463,1.51315 0.94251,2.35883 -0.0585,1.54087 -1.6353,3.46501 -5.09067,3.30702 -1.75944,-0.0224 -3.97717,-1.0578 -5.70149,-3.91186 -0.10112,-0.27941 -0.19117,-0.55747 -0.2702,-0.83334 -1.00588,-3.51107 -0.0938,-5.84428 1.00487,-7.03051 0,0 0,0 0,0 0.47907,-0.59499 1.08253,-1.29789 1.84096,-1.86227 -0.14712,-0.0864 0.74669,-0.67542 1.98193,-1.2709 -0.76739,0.95482 -1.1894,1.6139 -1.36651,2.07139 0.88103,-0.4801 1.20089,-0.92074 2.23701,-0.92073 0.69082,10e-6 1.64316,0.28329 2.19802,1.07047 -0.17851,0.56156 -0.63891,1.31533 -1.50967,2.29766 0.90913,-0.47496 1.68816,-0.78243 1.34842,-0.53812 0.20826,0.34758 0.46469,0.80356 0.47295,1.55354 0,0 0,0 0,0 0.32165,1.18776 0.24953,2.0458 0.32498,1.67419 z"
         id="path50"
         inkscape:path-effect="#path-effect51"
         inkscape:original-d="m 291.18098,17.003269 c 7.50055,26.358353 12.04885,53.700473 15.94056,80.765526 5.64718,39.273525 11.22413,78.564035 15.94057,117.960175 1.26935,10.60283 3.95752,70.6489 4.25081,76.51471 1.2084,24.16794 4.90131,35.79837 -3.18811,58.44874 -6.48751,18.16504 0.10801,9.92461 -6.37623,13.81515 -2.23167,1.33901 -8.28909,5.82362 -9.56433,6.37623 -8.33118,3.61017 -17.07457,6.1922 -25.50491,9.56434 -3.9741,1.58964 -7.56803,4.15944 -11.68974,5.31352 -12.17575,3.40921 -42.94738,5.72841 -55.26063,4.25082 -5.38015,-0.64562 -10.63805,-2.0718 -15.94056,-3.18812 -1.42922,-0.30088 -2.79752,-0.91737 -4.25082,-1.0627 -4.65052,-0.46505 -13.47648,1.10938 -10.62704,-7.43893 1.22112,-3.66337 1.0627,-0.78721 1.0627,-3.18811"
         sodipodi:nodetypes="cssssssssssssc" />
      <path
         style="font-variation-settings:normal;fill:none;fill-opacity:1;stroke:#92b99b;stroke-width:5.03547;stroke-linecap:butt;stroke-linejoin:round;stroke-miterlimit:4;stroke-dasharray:none;stroke-dashoffset:0;stroke-opacity:1;stop-color:#000000"
         id="path55-2-0"
         inkscape:path-effect="#path-effect56-2-9"
         sodipodi:type="arc"
         sodipodi:cx="-295.01389"
         sodipodi:cy="142.90268"
         sodipodi:rx="134.03522"
         sodipodi:ry="134.03522"
         d="m -413.14914,205.66358 c 1.43535,2.70646 2.96019,5.36536 4.57131,7.9704 m 5.66801,3.81382 c 10.01832,2.43541 15.10424,8.56778 15.59071,18.46404 m -8.31836,-4.66228 c 2.00417,2.31272 4.08703,4.5566 6.24539,6.72534 m -8.26287,-4.97703 c 0.0118,10.68002 7.72813,18.05066 18.03262,17.6032 m -26.31023,-34.72543 c 0.29963,0.45945 0.15718,1.09488 -0.30782,1.40303 -0.48068,0.31853 -1.1239,0.18816 -1.42472,-0.27303 -0.30758,-0.47154 -0.16419,-1.10759 0.32114,-1.41908 0.4695,-0.30133 1.10843,-0.17547 1.4114,0.28908 z m 9.13287,12.40794 c 0.34952,0.42216 0.22318,1.11518 -0.14657,1.42789 -0.37193,0.31471 -1.09459,0.3143 -1.44559,-0.10958 -0.35889,-0.4334 -0.28855,-1.08123 0.15809,-1.44544 0.43207,-0.35234 1.08067,-0.29972 1.43407,0.12713 z m 10.4901,11.26946 c 0.39611,0.37838 0.40265,1.02882 0.0208,1.4348 -0.39475,0.41966 -1.05031,0.43968 -1.44825,0.0595 -0.40687,-0.38869 -0.41232,-1.0402 -0.0112,-1.4537 0.38808,-0.40002 1.03812,-0.42321 1.43864,-0.0406 z m 11.75272,9.94621 c 0.43941,0.3281 0.52467,0.97384 0.19418,1.42375 -0.34163,0.46507 -0.99107,0.56425 -1.43268,0.23425 -0.45152,-0.33741 -0.53551,-0.9845 -0.18659,-1.44386 0.33754,-0.44438 0.98079,-0.54589 1.42509,-0.21414 z m -39.06062,-46.98988 c 0.24646,0.49025 0.0337,1.10596 -0.463,1.36021 -0.51348,0.26282 -1.13824,0.0612 -1.38562,-0.43085 -0.25293,-0.50313 -0.0392,-1.1193 0.47801,-1.37463 0.50038,-0.247 1.12141,-0.0504 1.37061,0.44527 z m -15.39153,-56.42231 c 0.0772,3.06216 0.26542,6.11936 0.56155,9.16531 m 3.40846,5.91016 c 7.91302,6.56218 9.855,14.28486 5.94533,23.4212 m -5.44376,-7.83921 c 0.79206,2.95665 1.6844,5.88707 2.67384,8.78496 m -5.25305,-8.09402 c -4.66722,9.62753 -0.96355,19.57052 8.44296,23.73754 m -8.38794,-42.74645 c 0.0669,0.5437 -0.33999,1.05121 -0.89263,1.12354 -0.57126,0.0748 -1.09128,-0.32489 -1.15851,-0.87112 -0.0687,-0.5585 0.33966,-1.0662 0.91204,-1.13213 0.55371,-0.0638 1.07146,0.32997 1.1391,0.87971 z m 2.77478,15.14204 c 0.12996,0.53241 -0.28649,1.10059 -0.75573,1.2203 -0.47208,0.12056 -1.12191,-0.1956 -1.25236,-0.73024 -0.13339,-0.54666 0.21297,-1.09858 0.77379,-1.23098 0.54254,-0.12809 1.1029,0.20259 1.2343,0.74092 z m 4.50193,14.73502 c 0.18973,0.51464 -0.0907,1.10235 -0.61275,1.29912 -0.5396,0.20339 -1.13757,-0.0671 -1.32799,-0.58372 -0.1947,-0.52823 0.0869,-1.11628 0.62934,-1.31173 0.5248,-0.18908 1.11956,0.076 1.3114,0.59633 z m 6.13566,14.14253 c 0.24621,0.49037 0.0332,1.10597 -0.46369,1.35997 -0.51362,0.26256 -1.13828,0.0606 -1.3854,-0.43157 -0.25268,-0.50325 -0.0387,-1.11931 0.47871,-1.37437 0.50051,-0.24674 1.12144,-0.0498 1.37038,0.44597 z m -14.36804,-59.38905 c 5.4e-4,0.54849 -0.46533,1.00369 -1.02344,1.00882 -0.57692,0.005 -1.04567,-0.45497 -1.04644,-1.00637 -1e-5,-0.013 2.2e-4,-0.026 7e-4,-0.039 0.0204,-0.54581 0.47982,-0.97989 1.04341,-0.97602 0.54521,0.004 1.00334,0.43735 1.02499,0.97421 5.1e-4,0.0127 7.7e-4,0.0255 7.8e-4,0.0383 z m 12.01462,-57.222822 c -1.30965,2.769451 -2.52761,5.582108 -3.65071,8.431674 m 0.33603,6.823088 c 4.0437,9.48342 2.17536,17.22575 -5.45989,23.53924 m -1.24469,-9.45389 c -0.6531,2.98969 -1.20378,6.00128 -1.64884,9.02848 m -0.95919,-9.59821 c -8.54821,6.4018 -9.83451,16.99843 -3.30411,24.98451 m 12.06754,-41.862554 c -0.18881,0.514978 -0.78313,0.781072 -1.30826,0.592913 -0.54283,-0.1945 -0.82326,-0.787848 -0.63377,-1.304818 0.19374,-0.528587 0.78914,-0.794302 1.3291,-0.591852 0.52235,0.195849 0.80383,0.783058 0.61293,1.303757 z m -4.47503,14.741624 c -0.129,0.53264 -0.75978,0.84619 -1.23158,0.73715 -0.4747,-0.10959 -0.90689,-0.68875 -0.77739,-1.22362 0.1324,-0.54689 0.69347,-0.87826 1.25254,-0.73843 0.54084,0.13526 0.88686,0.68633 0.75643,1.2249 z m -2.74786,15.14848 c -0.0659,0.54382 -0.58299,0.93849 -1.13681,0.87568 -0.5725,-0.0649 -0.98103,-0.57805 -0.91478,-1.1244 0.0677,-0.55862 0.58634,-0.95305 1.15773,-0.87929 0.55276,0.0714 0.96051,0.57816 0.89386,1.12801 z m -0.92793,15.36965 c 10e-6,0.0108 -1.6e-4,0.0216 -5.2e-4,0.0324 -0.0177,0.53376 -0.4764,0.97114 -1.02349,0.97586 -0.56541,0.005 -1.02669,-0.43722 -1.0453,-0.97405 -3.8e-4,-0.0109 -5.7e-4,-0.0219 -5.7e-4,-0.0329 -2.3e-4,-0.56379 0.46774,-1.01869 1.04468,-1.01439 0.55812,0.004 1.02475,0.45854 1.0252,1.01312 z m 14.26169,-59.414661 c -0.24533,0.490808 -0.86594,0.688779 -1.36687,0.44291 -0.51782,-0.254157 -0.73012,-0.875367 -0.48388,-1.368004 0.25178,-0.503708 0.87334,-0.701176 1.38741,-0.439514 0.49731,0.253129 0.7114,0.868346 0.46334,1.364608 z m 35.98819,-46.102644 c -2.40571,1.895426 -4.74125,3.876707 -7.00346,5.937544 m -2.69321,6.268491 c -0.51933,10.267628 -5.54552,16.447223 -15.20552,18.78234 m 3.02292,-9.053164 c -1.89474,2.404147 -3.70856,4.87285 -5.4383,7.399809 m 3.34106,-9.052667 c -10.50621,2.02265 -16.25615,10.938939 -13.96633,20.969448 m 29.22679,-32.303884 c -0.39544,0.379091 -1.04553,0.357031 -1.43432,-0.04231 -0.40188,-0.412799 -0.3931,-1.068577 0.004,-1.449441 0.40618,-0.389423 1.05732,-0.36626 1.45281,0.05271 0.38259,0.405305 0.37718,1.055738 -0.0226,1.439041 z m -10.46881,11.287181 c -0.34876,0.422783 -1.05321,0.429216 -1.42997,0.124933 -0.37914,-0.306049 -0.51479,-1.015893 -0.16455,-1.440395 0.35811,-0.434046 1.00758,-0.486911 1.44933,-0.116867 0.42735,0.357978 0.49783,1.004843 0.14519,1.432329 z m -9.11149,12.425536 c -0.29881,0.459987 -0.93754,0.58696 -1.40757,0.286454 -0.48588,-0.310635 -0.62699,-0.95161 -0.327,-1.413334 0.30673,-0.472097 0.94637,-0.598403 1.42761,-0.28071 0.46554,0.307333 0.60909,0.942496 0.30696,1.40759 z m -7.66018,13.37872 c -0.24559,0.490683 -0.8663,0.688337 -1.3671,0.442211 -0.5177,-0.254423 -0.72967,-0.875744 -0.48318,-1.368255 0.25204,-0.503575 0.8737,-0.700726 1.38764,-0.4388 0.49718,0.253384 0.71095,0.868712 0.46264,1.364844 z m 38.97645,-47.059733 c -0.43883,0.328892 -1.08227,0.22848 -1.42059,-0.215312 -0.34972,-0.458751 -0.26189,-1.109676 0.17912,-1.440467 0.45093,-0.338224 1.0956,-0.236436 1.43804,0.228038 0.33127,0.449328 0.24713,1.095195 -0.19657,1.427741 z"
         transform="matrix(4.827897,0,0,5.1875568,313.09481,-635.13109)"
         sodipodi:start="2.2043508"
         sodipodi:end="4.0770891"
         sodipodi:arc-type="arc"
         sodipodi:open="true" />
      <path
         style="font-variation-settings:normal;fill:none;fill-opacity:1;stroke:#92b99b;stroke-width:5.03547;stroke-linecap:butt;stroke-linejoin:round;stroke-miterlimit:4;stroke-dasharray:none;stroke-dashoffset:0;stroke-opacity:1;stop-color:#000000"
         id="path1"
         inkscape:path-effect="#path-effect2"
         sodipodi:type="arc"
         sodipodi:cx="-295.01389"
         sodipodi:cy="142.90268"
         sodipodi:rx="134.03522"
         sodipodi:ry="134.03522"
         d="m -179.27272,209.24429 c 1.3936,-2.35944 2.71669,-4.75917 3.96588,-7.19551 m 0.31511,-6.10196 c -2.72137,-8.80895 -0.26518,-15.59462 7.16759,-20.41271 m 0.14106,8.52894 c 0.87787,-2.58996 1.67377,-5.20778 2.38429,-7.8498 m -0.12496,8.6156 c 8.21255,-4.8151 10.48114,-14.00518 5.57435,-21.81546 m -14.9602,35.97549 c 0.21426,-0.44128 0.76687,-0.62442 1.21679,-0.40971 0.46508,0.22196 0.66095,0.77459 0.44624,1.217 -0.21954,0.45236 -0.77256,0.63537 -1.23472,0.4072 -0.44709,-0.22074 -0.64496,-0.7683 -0.42831,-1.21449 z m 5.36639,-12.68787 c 0.16691,-0.46068 0.75813,-0.67717 1.16638,-0.5338 0.41079,0.14414 0.73755,0.70089 0.57016,1.16295 -0.17116,0.47245 -0.70174,0.71179 -1.18465,0.53304 -0.46716,-0.17292 -0.72066,-0.69637 -0.55189,-1.16219 z m 3.98644,-13.18152 c 0.11606,-0.47631 0.6173,-0.77215 1.10254,-0.65752 0.5016,0.11849 0.80994,0.61742 0.69333,1.0954 -0.11924,0.48871 -0.6213,0.7842 -1.12101,0.65853 -0.48342,-0.12156 -0.79222,-0.61481 -0.67486,-1.09641 z m 2.50724,-13.566 c 0.0617,-0.48814 0.52811,-0.84012 1.02528,-0.78083 0.51392,0.0613 0.87809,0.52421 0.81572,1.01434 -0.0638,0.50114 -0.53127,0.8526 -1.04382,0.78367 -0.49583,-0.0667 -0.85958,-0.52363 -0.79718,-1.01718 z m -18.509,51.52551 c 0.25811,-0.41808 0.82726,-0.54467 1.25377,-0.28521 0.44089,0.26821 0.58013,0.83855 0.32156,1.25756 -0.26438,0.42842 -0.83378,0.55493 -1.27123,0.28098 -0.42319,-0.26502 -0.56507,-0.8306 -0.3041,-1.25333 z m -34.77333,39.41708 c 2.19285,-1.6453 4.33819,-3.35577 6.4326,-5.12772 m 2.6501,-5.52508 c 0.89839,-9.20822 5.87624,-14.58852 14.67174,-16.05831 m -3.26623,7.92242 c 1.83259,-2.04408 3.60617,-4.1409 5.31736,-6.28679 m -3.53422,7.88543 c 9.48183,-1.19544 15.13694,-8.64874 13.86378,-17.75089 m -28.06165,27.17427 c 0.36877,-0.32557 0.95087,-0.28141 1.28404,0.0912 0.3444,0.38518 0.31193,0.97201 -0.0576,1.29816 -0.37781,0.33347 -0.95996,0.28914 -1.29938,-0.10036 -0.32834,-0.37679 -0.29995,-0.95982 0.0729,-1.28901 z m 9.90741,-9.64818 c 0.33545,-0.36016 0.96684,-0.32755 1.28743,-0.0345 0.32263,0.2948 0.40542,0.93737 0.0694,1.29817 -0.34362,0.36892 -0.9276,0.38163 -1.30361,0.0269 -0.36374,-0.34313 -0.39236,-0.92647 -0.0532,-1.29063 z m 8.92226,-10.56838 c 0.29863,-0.39097 0.87824,-0.4606 1.27739,-0.15976 0.4126,0.31099 0.4947,0.89297 0.19555,1.28469 -0.30586,0.40053 -0.88561,0.4701 -1.29426,0.15385 -0.39532,-0.30594 -0.48062,-0.88348 -0.17868,-1.27878 z m 7.83688,-11.37994 c 0.25831,-0.41796 0.82752,-0.54429 1.25391,-0.28463 0.44077,0.26841 0.57975,0.83881 0.32099,1.2577 -0.26459,0.42831 -0.83405,0.55456 -1.27137,0.28041 -0.42307,-0.26522 -0.5647,-0.83087 -0.30353,-1.25348 z m -37.4626,40.21978 c 0.39859,-0.28718 0.97278,-0.18591 1.26722,0.21729 0.30436,0.41679 0.21421,0.99691 -0.18528,1.28464 -0.40848,0.29419 -0.98274,0.19264 -1.2816,-0.22799 -0.28912,-0.40692 -0.20336,-0.98355 0.19966,-1.27394 z m -47.31298,22.46377 c 2.68086,-0.59424 5.33717,-1.27852 7.96555,-2.04917 m 4.63363,-3.97815 c 4.47232,-8.0308 11.04369,-11.00054 19.69114,-8.95788 m -6.06179,6.00765 c 2.47604,-1.16129 4.91606,-2.4002 7.31667,-3.71305 m -6.30363,5.873 c 9.18161,2.59348 17.29732,-2.11624 19.61218,-10.99228 m -36.32796,14.01301 c 0.46712,-0.14906 0.98081,0.12461 1.13586,0.59844 0.16028,0.4898 -0.10475,1.01303 -0.57351,1.16278 -0.47929,0.15312 -0.99337,-0.12139 -1.14661,-0.6136 -0.14824,-0.47616 0.11196,-0.9969 0.58426,-1.14762 z m 12.86941,-4.89931 c 0.44782,-0.19883 1.01355,0.0775 1.19304,0.4712 0.18068,0.39608 0.006,1.01744 -0.44355,1.21687 -0.45927,0.20391 -0.99946,-0.0129 -1.20512,-0.48491 -0.19897,-0.45666 0.003,-1.00211 0.45563,-1.20316 z m 12.27888,-6.24589 c 0.42502,-0.24482 0.98512,-0.086 1.2368,0.34433 0.26016,0.44487 0.1118,1.01209 -0.31433,1.25746 -0.4357,0.25087 -0.99593,0.0917 -1.25008,-0.35656 -0.24586,-0.43363 -0.10213,-0.99769 0.32761,-1.24523 z m 11.58749,-7.48467 c 0.39872,-0.287 0.97286,-0.18547 1.26711,0.21786 0.30417,0.41694 0.21375,0.99701 -0.18587,1.28455 -0.40861,0.294 -0.98282,0.19219 -1.28149,-0.22858 -0.28893,-0.40705 -0.2029,-0.98364 0.20025,-1.27383 z m -50.09969,22.07717 c 0.0867,-0.0172 0.17326,-0.0206 0.25757,-0.0118 0,0 0,0 0,0 0.38446,0.0404 0.72478,0.33573 0.8076,0.73773 0.0855,0.41514 -0.11478,0.81968 -0.45808,1.00616 0,0 0,0 0,0 -0.0758,0.0411 -0.15838,0.0714 -0.24618,0.0888 -0.49573,0.098 -0.97715,-0.23439 -1.07391,-0.74256 -0.0936,-0.4916 0.22491,-0.98134 0.713,-1.0783 z m -52.36524,0.20007 c 2.67828,0.57879 5.37258,1.0779 8.07835,1.49524 m 5.88967,-1.62486 c 7.50078,-5.35998 14.71307,-5.17045 21.63065,0.36203 m -8.04883,2.82521 c 2.73466,0.0159 5.46997,-0.0548 8.20137,-0.21442 m -8.21528,2.59998 c 7.16028,6.2741 16.59969,5.52762 22.46261,-1.59588 m -38.85978,-2.84492 c 0.4863,0.0642 0.83433,0.53084 0.77243,1.02549 -0.064,0.51131 -0.52664,0.87142 -1.01416,0.80716 -0.49849,-0.0657 -0.84651,-0.53279 -0.7757,-1.04329 0.0685,-0.49386 0.52573,-0.85426 1.01743,-0.78936 z m 13.73215,1.091 c 0.48981,0.0131 0.88174,0.50579 0.87448,0.93843 -0.007,0.43528 -0.43243,0.92098 -0.92371,0.90789 -0.50232,-0.0134 -0.89681,-0.44137 -0.87951,-0.956 0.0167,-0.49786 0.43348,-0.90353 0.92874,-0.89032 z m 13.76628,-0.37659 c 0.48864,-0.0402 0.9276,0.34205 0.972,0.83872 0.0459,0.51341 -0.33025,0.96351 -0.82065,1.00372 -0.50142,0.0411 -0.9403,-0.34207 -0.97878,-0.85594 -0.0372,-0.49711 0.33338,-0.94585 0.82743,-0.9865 z m 13.66579,-1.90451 c 0.10973,-0.0217 0.21926,-0.0214 0.32426,-0.002 0,0 0,0 0,0 0.35638,0.0657 0.66273,0.34985 0.74053,0.72851 0.0803,0.3909 -0.0926,0.77218 -0.39989,0.97108 0,0 0,0 0,0 -0.0911,0.0589 -0.1939,0.10159 -0.30496,0.1235 -0.49577,0.0978 -0.977,-0.2349 -1.07349,-0.74311 -0.0933,-0.49164 0.22543,-0.98119 0.71355,-1.07789 z m -54.73298,-1.30828 c 0.47809,0.11317 0.7776,0.61338 0.66581,1.0999 -0.11556,0.50292 -0.61291,0.81482 -1.09204,0.7015 -0.48989,-0.11587 -0.7894,-0.61634 -0.6673,-1.11781 0.11812,-0.48512 0.61012,-0.79802 1.09353,-0.68359 z m -48.3665,-20.58034 c 2.25271,1.56261 4.55223,3.05964 6.89402,4.48899 m 6.07894,0.77404 c 9.0226,-2.04906 15.69708,0.9805 19.86334,8.86444 m -8.54786,-0.60345 c 2.51739,1.09513 5.06621,2.11763 7.64192,3.06542 m -8.59724,-0.8694 c 4.12223,8.62194 12.97805,11.64017 21.2148,7.56333 m -34.63219,-18.06868 c 0.42521,0.2474 0.56674,0.81378 0.31808,1.24741 -0.25703,0.44824 -0.82422,0.60236 -1.2502,0.35445 -0.43556,-0.25349 -0.57695,-0.81997 -0.31424,-1.26485 0.25413,-0.43037 0.81643,-0.58716 1.24636,-0.33701 z m 12.27881,6.36264 c 0.44751,0.20487 0.61551,0.81437 0.43838,1.21098 -0.17813,0.39909 -0.76187,0.68013 -1.21019,0.47489 -0.4584,-0.20986 -0.65447,-0.76009 -0.43632,-1.22872 0.21104,-0.45334 0.75565,-0.66431 1.20813,-0.45715 z m 12.84119,5.13748 c 0.46513,0.16021 0.71386,0.68833 0.55413,1.16192 -0.16511,0.48956 -0.69155,0.75086 -1.15757,0.59041 -0.47649,-0.16406 -0.7252,-0.69233 -0.55384,-1.1798 0.16577,-0.47157 0.68699,-0.73451 1.15728,-0.57253 z m 13.26911,3.85092 c 0.47805,0.11339 0.77733,0.61374 0.66532,1.10021 -0.1158,0.50287 -0.61329,0.81454 -1.09237,0.70101 -0.48984,-0.11609 -0.78913,-0.61671 -0.66679,-1.11813 0.11834,-0.48506 0.61049,-0.79774 1.09384,-0.68309 z m -49.97601,-22.87968 c 0.39821,0.28777 0.48308,0.86465 0.19322,1.27119 -0.29964,0.42024 -0.87863,0.51754 -1.27763,0.22908 -0.40797,-0.29494 -0.49261,-0.87196 -0.1876,-1.2882 0.29506,-0.40267 0.86937,-0.50304 1.27201,-0.21207 z m -36.24272,-37.81063 c 1.41009,2.35549 2.89779,4.65949 4.45855,6.90992 m 5.23692,3.14084 c 9.0317,1.70927 13.92442,7.00914 14.71306,15.86014 m -7.61321,-3.85792 c 1.88305,1.98337 3.82834,3.90821 5.8313,5.77244 m -7.56148,-4.12977 c 0.43485,9.53085 7.46213,15.74732 16.61592,15.14616 m -24.75627,-30.05441 c 0.28886,0.39615 0.19132,0.96992 -0.20931,1.26657 -0.41414,0.30665 -0.99422,0.22032 -1.28424,-0.17717 -0.29654,-0.40642 -0.19833,-0.98081 0.22031,-1.28154 0.40498,-0.29093 0.98117,-0.20841 1.27324,0.19214 z m 8.70974,10.66562 c 0.32995,0.36224 0.24622,0.98626 -0.0708,1.28078 -0.31887,0.2964 -0.96373,0.3263 -1.29467,-0.037 -0.33837,-0.3715 -0.30308,-0.95248 0.08,-1.29657 0.37057,-0.33286 0.95183,-0.31344 1.28546,0.0528 z m 9.80014,9.68281 c 0.36637,0.32617 0.39229,0.90779 0.0632,1.28235 -0.34017,0.38718 -0.92527,0.42524 -1.2925,0.0982 -0.37547,-0.33439 -0.40104,-0.91627 -0.0558,-1.29881 0.33399,-0.37006 0.91464,-0.41152 1.28507,-0.0817 z m 10.7567,8.63768 c 0.39808,0.28795 0.48269,0.86486 0.19264,1.27127 -0.29983,0.4201 -0.87886,0.51713 -1.27773,0.22849 -0.40783,-0.29512 -0.4922,-0.87218 -0.187,-1.28828 0.29524,-0.40253 0.86959,-0.50263 1.27209,-0.21148 z m -36.75568,-40.57624 c 0.24307,0.42792 0.0807,0.98912 -0.35241,1.23971 -0.44776,0.25903 -1.01677,0.10728 -1.26122,-0.32224 -0.0573,-0.10062 -0.0929,-0.20779 -0.1084,-0.31622 0,0 0,0 0,0 -0.0519,-0.36561 0.12533,-0.74279 0.47368,-0.93739 0.33671,-0.18811 0.75088,-0.14252 1.03465,0.0852 0,0 0,0 0,0 0.0844,0.0678 0.1574,0.15185 0.2137,0.25097 z m -16.71108,-49.62794 c 0.29493,2.72402 0.67061,5.43811 1.12761,8.13731 m 3.39884,5.07656 c 7.45133,5.42739 9.54681,12.32936 6.48015,20.63951 m -5.22084,-6.74623 c 0.84763,2.60005 1.77793,5.17337 2.79144,7.715 m -5.05958,-6.97557 c -3.69468,8.77422 -0.007,17.49894 8.60497,20.81356 m -9.56241,-37.77408 c 0.0924,0.4817 -0.24068,0.95909 -0.72958,1.05631 -0.50538,0.10051 -0.99298,-0.22499 -1.08571,-0.70789 -0.0948,-0.49375 0.23869,-0.97127 0.74545,-1.06502 0.49024,-0.0907 0.97639,0.22955 1.06984,0.7166 z m 3.29544,13.37478 c 0.14211,0.46891 -0.20181,0.99626 -0.61464,1.12586 -0.41533,0.13049 -1.01038,-0.11981 -1.15293,-0.59014 -0.14576,-0.4809 0.13594,-0.99025 0.62974,-1.13618 0.47771,-0.14117 0.99413,0.12633 1.13783,0.60046 z m 4.70145,12.94444 c 0.19241,0.451 -0.0318,0.98823 -0.48909,1.18715 -0.47273,0.20563 -1.0186,-0.009 -1.21156,-0.46193 -0.19729,-0.46286 0.0278,-1.00031 0.5033,-1.19903 0.46,-0.19224 1.00281,0.0178 1.19735,0.47381 z m 6.12268,12.36746 c 0.24285,0.42806 0.0802,0.9892 -0.35308,1.23956 -0.44791,0.25881 -1.01685,0.10675 -1.26109,-0.32292 -0.0454,-0.0798 -0.0772,-0.16375 -0.0961,-0.24916 0,0 0,0 0,0 -0.085,-0.3856 0.0922,-0.79789 0.46204,-1.00426 0.35752,-0.19948 0.80209,-0.13564 1.08548,0.12991 0,0 0,0 0,0 0.063,0.0591 0.1181,0.12824 0.16271,0.20687 z m -16.026,-52.35024 c 0.0433,0.48936 -0.33699,0.93124 -0.83392,0.9785 -0.51368,0.0488 -0.96641,-0.32482 -1.00989,-0.81522 -0.0444,-0.50142 0.33609,-0.94338 0.85045,-0.98556 0.4976,-0.0408 0.94959,0.32748 0.99336,0.82228 z m 4.29035,-52.38732 c -0.77302,2.63054 -1.4691,5.2848 -2.08768,7.95782 m 1.18104,6.01337 c 4.78796,7.91761 4.0152,15.20663 -2.154,21.64463 m -2.1207,-8.30236 c -0.24612,2.7342 -0.41338,5.47531 -0.50124,8.21838 m -1.88392,-8.43307 c -6.88364,6.62892 -6.95728,15.98485 -0.49245,22.5167 m 6.23478,-38.56109 c -0.1008,0.48153 -0.59375,0.79433 -1.08366,0.69499 -0.50642,-0.1027 -0.83143,-0.59244 -0.73038,-1.07485 0.10332,-0.49326 0.5964,-0.80597 1.10142,-0.69684 0.48855,0.10557 0.81455,0.58983 0.71262,1.0767 z m -2.16944,13.65846 c -0.0534,0.48927 -0.57894,0.84076 -1.01116,0.79762 -0.43489,-0.0433 -0.88555,-0.50875 -0.83203,-0.9989 0.0547,-0.50117 0.51515,-0.86064 1.02864,-0.80126 0.49675,0.0574 0.86857,0.50783 0.81455,1.00254 z m -0.82942,13.80557 c -0.005,0.49189 -0.42828,0.89436 -0.92806,0.89201 -0.51663,-0.002 -0.9305,-0.41968 -0.92508,-0.91251 0.006,-0.5039 0.42852,-0.90639 0.94513,-0.89737 0.49977,0.009 0.91354,0.42051 0.90801,0.91787 z m 0.52711,13.8058 c 0.0431,0.48938 -0.33742,0.93109 -0.83437,0.97812 -0.51371,0.0486 -0.96627,-0.32526 -1.00952,-0.81569 -0.0442,-0.50143 0.33652,-0.94323 0.85091,-0.98517 0.49761,-0.0406 0.94944,0.32792 0.99298,0.82274 z m 5.9653,-54.63966 c -0.1476,0.46864 -0.66835,0.73103 -1.14556,0.58407 -0.49329,-0.15192 -0.76814,-0.67076 -0.62014,-1.14037 0.15133,-0.48016 0.67229,-0.74237 1.16348,-0.5841 0.47518,0.15311 0.75146,0.66654 0.60222,1.1404 z m 24.447,-46.320383 c -1.78931,2.081292 -3.50549,4.21996 -5.14798,6.411036 m -1.32725,5.960129 c 1.22835,9.109495 -2.25785,15.426062 -10.40913,18.96587 m 1.26009,-8.441808 c -1.2882,2.412574 -2.50137,4.865719 -3.63894,7.354466 m 1.53435,-8.478216 c -8.90717,3.418675 -12.59094,12.046436 -9.13475,20.544584 m 20.71269,-32.972529 c -0.2847,0.399105 -0.85988,0.487637 -1.26778,0.201132 -0.42165,-0.296162 -0.5228,-0.87379 -0.2372,-1.274397 0.29203,-0.40961 0.86799,-0.497705 1.28545,-0.195424 0.40385,0.292423 0.5074,0.86515 0.21953,1.268689 z m -7.37225,11.629994 c -0.23966,0.427386 -0.85824,0.544775 -1.23773,0.336859 -0.38186,-0.209092 -0.61364,-0.8116 -0.37326,-1.24025 0.24579,-0.438288 0.80824,-0.588072 1.2556,-0.333111 0.43278,0.246648 0.59771,0.804362 0.35539,1.236502 z m -6.09819,12.354339 c -0.19403,0.450549 -0.73784,0.658551 -1.19707,0.464343 -0.47472,-0.200754 -0.69533,-0.744035 -0.50074,-1.195667 0.19895,-0.461777 0.74311,-0.669525 1.21502,-0.462495 0.45653,0.20028 0.67897,0.738268 0.48279,1.193819 z m -4.80659,12.932078 c -0.14781,0.46858 -0.66869,0.73073 -1.14582,0.58355 -0.49322,-0.15215 -0.76782,-0.67111 -0.61961,-1.14065 0.15154,-0.48008 0.67262,-0.74206 1.16374,-0.58356 0.4751,0.15333 0.75115,0.66688 0.60169,1.14066 z m 26.90846,-47.680154 c -0.32917,0.365689 -0.91278,0.388899 -1.28724,0.05712 -0.38709,-0.342958 -0.42278,-0.930618 -0.0925,-1.298105 0.33768,-0.375744 0.92238,-0.398417 1.30458,-0.04942 0.36974,0.337618 0.40802,0.920648 0.0752,1.2904 z"
         transform="matrix(4.827897,0,0,5.1875568,-254.06035,-635.13109)"
         sodipodi:start="0.11868239"
         sodipodi:end="3.8816123"
         sodipodi:arc-type="arc"
         sodipodi:open="true" />
      <path
         style="font-variation-settings:normal;fill:none;fill-opacity:1;stroke:#92b99b;stroke-width:5.03547;stroke-linecap:butt;stroke-linejoin:round;stroke-miterlimit:4;stroke-dasharray:none;stroke-dashoffset:0;stroke-opacity:1;stop-color:#000000"
         id="path2"
         inkscape:path-effect="#path-effect4"
         sodipodi:type="arc"
         sodipodi:cx="-295.01389"
         sodipodi:cy="142.90268"
         sodipodi:rx="134.03522"
         sodipodi:ry="134.03522"
         d="m -420.98744,186.82426 c 0.86693,2.59422 1.81023,5.16171 2.82935,7.69751 m 4.50763,4.17887 c 8.71629,3.57581 12.1907,9.81108 10.69279,18.73776 m -6.6336,-5.40002 c 1.37724,2.35681 2.829,4.67017 4.35471,6.93512 m -6.51886,-5.67047 c -2.02545,9.50877 3.45115,17.28967 12.79135,18.50752 m -17.16837,-34.93076 c 0.19236,0.4501 -0.0515,0.99517 -0.53177,1.20425 -0.49646,0.21613 -1.06121,0.0107 -1.25426,-0.44079 -0.19738,-0.46165 0.0466,-1.00681 0.54593,-1.21635 0.48309,-0.2027 1.04561,-0.002 1.2401,0.45289 z m 6.04887,12.34374 c 0.23786,0.42716 -0.008,1.02685 -0.40325,1.25188 -0.39741,0.22651 -1.05351,0.12102 -1.29227,-0.30772 -0.24412,-0.43838 -0.0582,-1.00547 0.41628,-1.26543 0.45903,-0.25148 1.03873,-0.11065 1.27924,0.32127 z m 7.32114,11.62831 c 0.28282,0.39913 0.15957,0.98325 -0.26574,1.28913 -0.43966,0.31618 -1.03522,0.23446 -1.31914,-0.16647 -0.29029,-0.40994 -0.16649,-0.99428 0.27754,-1.30404 0.42955,-0.29965 1.02139,-0.22218 1.30734,0.18138 z m 8.57607,10.76717 c 0.32719,0.36599 0.27041,0.96259 -0.1193,1.31596 -0.40285,0.36528 -1.00636,0.35102 -1.33486,-0.0171 -0.33589,-0.37635 -0.27821,-0.97324 0.12974,-1.33217 0.39465,-0.34723 0.9936,-0.33678 1.32442,0.0333 z m -26.70793,-47.65737 c 0.14627,0.46794 -0.15174,0.98643 -0.65136,1.14621 -0.51645,0.16516 -1.05833,-0.0965 -1.2051,-0.5657 -0.15007,-0.47976 0.14788,-0.99829 0.66653,-1.15678 0.50173,-0.15332 1.04203,0.10313 1.18993,0.57627 z m -7.02881,-51.98647 c -0.19256,2.72965 -0.30504,5.46603 -0.338,8.20421 m 2.55993,5.60779 c 6.68337,6.68545 7.47997,13.8974 2.52436,21.54443 m -3.9731,-7.61933 c 0.34287,2.71868 0.76397,5.42739 1.26275,8.12118 m -3.7592,-7.80634 c -5.62395,7.97709 -3.68979,17.174 4.30814,22.0856 m -1.95692,-38.97076 c 0.004,0.49084 -0.43162,0.90118 -0.95674,0.90921 -0.54282,0.008 -0.986,-0.3997 -0.99038,-0.89179 -0.004,-0.50314 0.43143,-0.91341 0.97425,-0.9148 0.52512,-0.001 0.9684,0.4011 0.97287,0.89738 z m 0.79726,13.77598 c 0.0522,0.48833 -0.41074,0.94586 -0.86409,0.99851 -0.45611,0.0531 -1.02068,-0.30192 -1.07301,-0.79145 -0.0535,-0.50053 0.34054,-0.95154 0.88093,-1.00583 0.52277,-0.0525 1.00339,0.30502 1.05617,0.79877 z m 2.13278,13.63515 c 0.0994,0.48072 -0.24887,0.96778 -0.76246,1.07742 -0.5309,0.11335 -1.04478,-0.201 -1.14451,-0.68293 -0.10196,-0.49276 0.24617,-0.97981 0.77853,-1.0864 0.515,-0.10311 1.02792,0.20585 1.12844,0.69191 z m 3.45196,13.34821 c 0.14606,0.46801 -0.1522,0.98637 -0.65189,1.14591 -0.51653,0.16493 -1.05829,-0.097 -1.20484,-0.56625 -0.14985,-0.47983 0.14833,-0.99822 0.66705,-1.15648 0.50181,-0.15309 1.042,0.10361 1.18968,0.57682 z m -5.82796,-54.5354 c -0.0439,0.48823 -0.5177,0.85316 -1.04045,0.80948 -0.54038,-0.0451 -0.94074,-0.49435 -0.8966,-0.98395 0.0451,-0.5006 0.51886,-0.86543 1.05851,-0.81328 0.52205,0.0505 0.92295,0.49409 0.87854,0.98775 z m 13.91904,-50.385166 c -1.3024,2.411646 -2.52099,4.863509 -3.65634,7.350645 m 0.0915,6.142819 c 3.44167,8.738802 1.41003,15.575822 -6.09022,20.694892 m -0.70543,-8.52902 c -0.74182,2.62714 -1.4017,5.27778 -1.98018,7.94697 m -0.43221,-8.62815 c -8.27313,5.14927 -10.03423,14.41152 -4.5415,21.99863 m 13.349,-36.53311 c -0.19259,0.449744 -0.75503,0.649951 -1.23806,0.447286 -0.49932,-0.209497 -0.74108,-0.75991 -0.5478,-1.211681 0.19763,-0.461924 0.76066,-0.661997 1.25706,-0.445261 0.48022,0.209668 0.72353,0.754914 0.5288,1.209656 z m -4.70966,12.90798 c -0.14254,0.46767 -0.74511,0.70659 -1.18127,0.57826 -0.43886,-0.12901 -0.81814,-0.67467 -0.67505,-1.14408 0.1463,-0.47997 0.68366,-0.73958 1.20007,-0.57825 0.49957,0.15608 0.80038,0.67121 0.65625,1.14407 z m -3.31092,13.34153 c -0.0931,0.48049 -0.6006,0.79507 -1.11552,0.69884 -0.53228,-0.0995 -0.88461,-0.58628 -0.79117,-1.0683 0.0956,-0.49285 0.60319,-0.80731 1.13401,-0.70076 0.51351,0.10308 0.86678,0.58439 0.77268,1.07022 z m -1.92744,13.62901 c -0.0442,0.48822 -0.51809,0.85293 -1.04082,0.80901 -0.54035,-0.0454 -0.94051,-0.49478 -0.89614,-0.98436 0.0454,-0.50058 0.51925,-0.86519 1.05888,-0.81279 0.52202,0.0507 0.92272,0.49451 0.87808,0.98814 z m 16.07306,-52.212138 c -0.0436,0.07666 -0.0982,0.143856 -0.161,0.201075 0,0 0,0 0,0 -0.28676,0.260676 -0.74836,0.315458 -1.12469,0.104905 -0.38866,-0.217454 -0.57946,-0.641988 -0.50122,-1.026047 0,0 0,0 0,0 0.0173,-0.08472 0.0478,-0.167283 0.092,-0.244924 0.24985,-0.438393 0.83419,-0.573866 1.30449,-0.301405 0.45496,0.263576 0.63588,0.834815 0.39041,1.266396 z m 33.99091,-39.698786 c -2.18477,1.64544 -4.31988,3.354871 -6.40083,5.126223 m -2.53126,5.600851 c -0.62288,9.399977 -5.42983,14.674176 -14.36986,16.090638 m 3.01241,-8.005807 c -1.7972,2.054627 -3.52947,4.166243 -5.19227,6.332777 m 3.3056,-7.98307 c -9.65977,1.100349 -15.29992,8.767301 -13.48458,18.012262 m 27.66717,-27.378316 c -0.36572,0.32529 -0.95998,0.267115 -1.31071,-0.121897 -0.36256,-0.402124 -0.34708,-1.002846 0.0197,-1.329241 0.37507,-0.33373 0.96944,-0.275502 1.32667,0.131486 0.34557,0.393717 0.33407,0.990747 -0.0357,1.319652 z m -9.78328,9.655366 c -0.32948,0.361226 -0.97626,0.318398 -1.31513,0.0153 -0.34101,-0.304867 -0.4494,-0.960497 -0.1187,-1.323075 0.33812,-0.370731 0.9349,-0.374597 1.33211,-0.0072 0.38425,0.355375 0.43486,0.949771 0.10172,1.315015 z m -8.69963,10.636786 c -0.28857,0.395034 -0.88162,0.463843 -1.30686,0.157768 -0.43957,-0.316391 -0.55138,-0.907112 -0.26144,-1.303769 0.29645,-0.405569 0.8899,-0.473903 1.32475,-0.151315 0.42067,0.312069 0.53532,0.897896 0.24355,1.297316 z m -7.48306,11.556037 c -0.0552,0.09699 -0.12801,0.178826 -0.21293,0.244442 0,0 0,0 0,0 -0.28837,0.222504 -0.71856,0.259379 -1.0729,0.06088 -0.36581,-0.204927 -0.55612,-0.593198 -0.5117,-0.958623 0,0 0,0 0,0 0.0132,-0.108327 0.0472,-0.214388 0.1032,-0.312561 0.25007,-0.438246 0.83446,-0.573407 1.3046,-0.300706 0.45481,0.263809 0.63543,0.835129 0.38973,1.266566 z m 36.70358,-40.463955 c -0.39729,0.287212 -0.98352,0.169176 -1.29359,-0.253867 -0.32053,-0.437302 -0.24441,-1.034168 0.15394,-1.322261 0.4073,-0.294567 0.99356,-0.176605 1.30844,0.264895 0.30463,0.427103 0.23292,1.020831 -0.16879,1.311233 z m 47.06906,-23.162022 c -2.64978,0.683759 -5.28054,1.44553 -7.88776,2.283243 m -4.50583,4.20727 c -4.21943,8.459719 -10.80627,11.502889 -19.63018,9.229939 m 5.96479,-6.185308 c -2.46939,1.187792 -4.90446,2.446594 -7.3007,3.774336 m 6.21,-6.041862 c -9.34919,-2.802094 -17.45714,1.95072 -19.57647,11.093678 m 36.33536,-14.221831 c -0.46408,0.159953 -0.9916,-0.123356 -1.16586,-0.618807 -0.18013,-0.512151 0.0662,-1.061913 0.53144,-1.222219 0.47574,-0.163907 1.00315,0.119283 1.17672,0.633629 0.16792,0.497573 -0.0731,1.045667 -0.5423,1.207397 z m -12.81138,5.127374 c -0.44652,0.204446 -1.0273,-0.08939 -1.22108,-0.502608 -0.19506,-0.415695 -0.0376,-1.063736 0.41008,-1.268687 0.4577,-0.209559 1.01042,0.02101 1.23338,0.516253 0.21569,0.47909 0.0291,1.048321 -0.42238,1.255042 z m -12.25354,6.348951 c -0.42432,0.246811 -0.9967,0.07109 -1.26364,-0.381149 -0.27594,-0.467477 -0.14092,-1.054526 0.28445,-1.302018 0.43492,-0.253051 1.00725,-0.07747 1.27725,0.393535 0.26119,0.455646 0.13096,1.04008 -0.29806,1.289632 z m -11.5621,7.509203 c -0.39743,0.287033 -0.98361,0.168729 -1.29349,-0.254459 -0.32033,-0.437452 -0.24393,-1.034288 0.15455,-1.322201 0.40744,-0.29438 0.99364,-0.17615 1.30833,0.265496 0.30443,0.427245 0.23245,1.020944 -0.16939,1.311164 z m 49.86751,-22.83225 c -0.47697,0.113317 -0.97343,-0.220153 -1.09793,-0.729774 -0.1287,-0.526799 0.17022,-1.049061 0.64854,-1.162601 0.48907,-0.116092 0.98542,0.217356 1.10726,0.745682 0.11786,0.511099 -0.17561,1.032117 -0.65787,1.146693 z m 52.19733,-2.807725 c -2.7,-0.467831 -5.41161,-0.843628 -8.1303,-1.1294617 m -5.79474,2.0390457 c -7.19197,6.040299 -14.32205,6.286404 -21.5584,0.799577 m 7.86385,-3.3777354 c -2.72678,0.1310483 -5.44986,0.3471279 -8.16473,0.6461684 m 8.04439,-3.1500397 c -7.51018,-6.20926209 -16.85132,-4.9391488 -22.30286,2.6783479 m 38.88195,1.0547178 c -0.48759,-0.03965 -0.85615,-0.5092521 -0.81751,-1.0316101 0.0399,-0.5399656 0.48493,-0.9440855 0.97465,-0.9044125 0.50073,0.040564 0.86934,0.5107661 0.82163,1.0502569 -0.0462,0.5218987 -0.48575,0.9258597 -0.97877,0.8857657 z m -13.73517,-0.364042 c -0.48873,0.0134 -0.90669,-0.4820736 -0.92356,-0.9364113 -0.0171,-0.4571128 0.37985,-0.9900783 0.8704,-1.0035145 0.50158,-0.013738 0.91844,0.4133216 0.92951,0.9542347 0.0107,0.5232748 -0.38218,0.9721431 -0.87635,0.9856911 z m -13.70297,1.097599 c -0.4852,0.06432 -0.94468,-0.317097 -1.01692,-0.835958 -0.0747,-0.536351 0.27509,-1.0250447 0.76186,-1.0894823 0.49771,-0.065885 0.9571,0.3156618 1.02461,0.8528703 0.0653,0.519692 -0.27895,1.007536 -0.76955,1.07257 z m -13.53683,2.498948 c -0.47702,0.113098 -0.97333,-0.220596 -1.09759,-0.73027 -0.12846,-0.526855 0.17069,-1.048977 0.64906,-1.162298 0.48912,-0.115867 0.98531,0.217805 1.10691,0.746184 0.11763,0.51115 -0.17607,1.03203 -0.65838,1.146384 z m 54.61383,-1.346667 c -0.48179,-0.09485 -0.79625,-0.604907 -0.69877,-1.121574 0.10077,-0.534083 0.59038,-0.887057 1.07465,-0.792156 0.11344,0.02223 0.21755,0.06619 0.30927,0.12717 0,0 0,0 0,0 0.30911,0.205845 0.47542,0.602971 0.39152,1.013752 -0.0811,0.397034 -0.38888,0.698112 -0.74716,0.771409 0,0 0,0 0,0 -0.10663,0.02174 -0.21792,0.02337 -0.32951,0.0014 z m 48.44118,19.617853 c -2.25369,-1.549402 -4.55235,-3.031344 -6.89259,-4.442183 m -6.11435,-0.621885 c -9.1106,2.394168 -15.63721,-0.487034 -19.82132,-8.513589 m 8.54829,0.312402 c -2.51916,-1.051374 -5.07185,-2.022961 -7.65467,-2.911114 m 8.6201,0.597881 c -4.1123,-8.8099085 -13.1767,-11.7235253 -21.36679,-7.0618913 m 34.75199,17.5353643 c -0.42455,-0.243496 -0.55806,-0.825439 -0.30056,-1.281517 0.26619,-0.471453 0.84071,-0.647504 1.26667,-0.403301 0.43553,0.249692 0.56903,0.831771 0.29653,1.299705 -0.26361,0.452676 -0.83337,0.631314 -1.26264,0.385113 z m -12.26196,-6.210117 c -0.44717,-0.197659 -0.61201,-0.824539 -0.43227,-1.242137 0.18075,-0.420195 0.76799,-0.731235 1.21684,-0.532843 0.45894,0.202852 0.65217,0.767487 0.43001,1.260808 -0.2149,0.477234 -0.76243,0.714029 -1.21458,0.514172 z m -12.85016,-4.869034 c -0.4663,-0.148058 -0.72007,-0.688538 -0.56501,-1.189061 0.16029,-0.517394 0.6849,-0.811189 1.15319,-0.662331 0.47881,0.152202 0.73224,0.693212 0.56456,1.208085 -0.1622,0.498084 -0.68125,0.793009 -1.15274,0.643307 z m -13.33759,-3.421438 c -0.48175,-0.09511 -0.79595,-0.605345 -0.69819,-1.121975 0.10105,-0.534044 0.59086,-0.88677 1.0751,-0.791611 0.09,0.01768 0.17403,0.04902 0.25071,0.09167 0,0 0,0 0,0 0.34602,0.192836 0.53874,0.61368 0.44946,1.049647 -0.0863,0.421398 -0.42788,0.734499 -0.81433,0.78189 0,0 0,0 0,0 -0.086,0.01047 -0.17426,0.0078 -0.26275,-0.0096 z m 50.0277,21.947226 c -0.39844,-0.285573 -0.47257,-0.878917 -0.16984,-1.307206 0.31294,-0.442727 0.90307,-0.559978 1.30268,-0.273681 0.40859,0.292731 0.4828,0.886078 0.16409,1.324788 -0.30832,0.424404 -0.89407,0.544845 -1.29693,0.256099 z m 36.9009,37.2863 c -1.48946,-2.295907 -3.04681,-4.549042 -4.66865,-6.75576 m -5.41983,-2.938014 c -9.3618,-1.317098 -14.33721,-6.598428 -14.9816,-15.687152 m 7.75815,3.693828 c -1.90994,-1.964876 -3.87631,-3.87465 -5.89574,-5.725677 m 7.7,3.971867 c -0.30926,-9.754976 -7.38954,-15.935738 -16.73214,-15.043825 m 25.01649,29.944268 c -0.29896,-0.389355 -0.19768,-0.979531 0.21688,-1.302008 0.42854,-0.333347 1.02806,-0.274241 1.32774,0.116139 0.30641,0.399153 0.20521,0.989182 -0.22749,1.317014 -0.41859,0.317141 -1.01484,0.262537 -1.31713,-0.131145 z m -8.9277,-10.522585 c -0.33557,-0.358584 -0.24119,-1.002585 0.0892,-1.317461 0.33232,-0.316881 0.99685,-0.373131 1.33325,-0.01366 0.34396,0.367549 0.30068,0.964875 -0.0982,1.333453 -0.3859,0.356559 -0.98492,0.360244 -1.32421,-0.0023 z m -9.90878,-9.605553 c -0.36869,-0.324052 -0.38367,-0.922586 -0.0395,-1.319225 0.35573,-0.41001 0.95527,-0.468246 1.32494,-0.143412 0.37797,0.332132 0.39308,0.930576 0.0321,1.336068 -0.3492,0.392269 -0.94473,0.454219 -1.31751,0.126569 z m -10.78973,-8.580855 c -0.3983,-0.285758 -0.47217,-0.879141 -0.16924,-1.307295 0.31315,-0.442585 0.90334,-0.559566 1.30282,-0.273084 0.40846,0.292918 0.48239,0.886303 0.16348,1.32487 -0.30852,0.424265 -0.89433,0.544439 -1.29706,0.255509 z m 37.47641,40.044898 c -0.25886,-0.416365 -0.10019,-0.993031 0.34359,-1.272859 0.45874,-0.28926 1.04891,-0.171555 1.3084,0.24602 0.26533,0.426957 0.10666,1.003509 -0.35571,1.286755 -0.44728,0.27401 -1.03454,0.161075 -1.29628,-0.259916 z m 19.24357,48.602323 c -0.41489,-2.70805 -0.92057,-5.398 -1.51366,-8.06623 m -3.77479,-4.84585 c -8.01261,-4.89961 -10.51205,-11.583764 -7.6069,-20.188507 m 5.70053,6.384406 c -0.99036,-2.544007 -2.06007,-5.057599 -3.20575,-7.537131 m 5.54179,6.627727 c 3.50252,-9.093329 -0.66671,-17.547173 -9.62128,-20.298989 m 11.34901,37.204564 c -0.11737,-0.47488 0.21073,-0.97354 0.71824,-1.1029 0.52462,-0.13373 1.04916,0.15972 1.16718,0.63662 0.12066,0.4876 -0.20797,0.9865 -0.7346,1.11271 -0.50946,0.12211 -1.03214,-0.16628 -1.15082,-0.64643 z m -4.019,-13.138774 c -0.16796,-0.459172 0.16909,-1.012881 0.59455,-1.173188 0.42802,-0.16139 1.05947,0.04568 1.22803,0.506556 0.17235,0.471238 -0.10017,1.002168 -0.60955,1.184492 -0.49277,0.176378 -1.04321,-0.05358 -1.21303,-0.51786 z m -5.3928,-12.645623 c -0.21506,-0.439709 7.5e-4,-0.996542 0.46986,-1.229793 0.48492,-0.241113 1.0594,-0.06459 1.27507,0.37655 0.2205,0.451055 0.005,1.007849 -0.48345,1.242447 -0.47209,0.226949 -1.04403,0.05539 -1.26148,-0.389204 z m -6.66735,-12.044211 c -0.25866,-0.416482 -0.0997,-0.993072 0.34417,-1.272696 0.45887,-0.289048 1.04898,-0.171073 1.30828,0.246618 0.26514,0.427074 0.1062,1.00355 -0.35629,1.286583 -0.44741,0.273804 -1.03462,0.1606 -1.29616,-0.260505 z m 18.62697,51.357328 c -0.0633,-0.48682 0.32021,-0.94705 0.84093,-1.01891 0.53827,-0.0743 1.02849,0.27757 1.0925,0.76676 0.0654,0.50018 -0.31886,0.96085 -0.8586,1.02712 -0.52215,0.0641 -1.01084,-0.28274 -1.07483,-0.77497 z"
         transform="matrix(4.827897,0,0,5.1875568,35.818961,-1240.0967)"
         sodipodi:start="2.4050637"
         sodipodi:end="6.1610123"
         sodipodi:arc-type="arc"
         sodipodi:open="true" />
      <path
         style="font-variation-settings:normal;fill:none;fill-opacity:1;stroke:#92b99b;stroke-width:5.03547;stroke-linecap:butt;stroke-linejoin:round;stroke-miterlimit:4;stroke-dasharray:none;stroke-dashoffset:0;stroke-opacity:1;stop-color:#000000"
         id="path4"
         inkscape:path-effect="#path-effect6"
         sodipodi:type="arc"
         sodipodi:cx="-295.01389"
         sodipodi:cy="142.90268"
         sodipodi:rx="134.03522"
         sodipodi:ry="134.03522"
         d="m -189.56389,225.29484 c 1.79103,-2.28937 3.5099,-4.63509 5.15282,-7.03247 m 1.14462,-6.3832 c -1.70361,-9.63816 1.74219,-16.442 10.19749,-20.57176 m -0.94517,9.00523 c 1.25944,-2.61692 2.43386,-5.27434 3.51946,-7.96756 m -1.23661,9.06622 c 9.29006,-4.0246 12.82279,-13.44185 8.64107,-22.27437 m -20.38779,35.96994 c 0.28444,-0.43611 0.89083,-0.55539 1.3362,-0.26933 0.46037,0.2957 0.59307,0.90402 0.30778,1.34149 -0.2917,0.4473 -0.89871,0.56619 -1.35495,0.26408 -0.44136,-0.29225 -0.57662,-0.8953 -0.28903,-1.33624 z m 7.31925,-12.66286 c 0.2356,-0.46392 0.8868,-0.61558 1.29861,-0.41164 0.41439,0.20509 0.68681,0.83432 0.45045,1.29981 -0.24167,0.47596 -0.83206,0.65948 -1.31792,0.4084 -0.47002,-0.24289 -0.66935,-0.8275 -0.43114,-1.29657 z m 5.89162,-13.37817 c 0.18283,-0.48689 0.74834,-0.73478 1.24487,-0.55244 0.51326,0.18849 0.7747,0.75319 0.59116,1.24192 -0.18766,0.49971 -0.75414,0.74719 -1.26458,0.55124 -0.49379,-0.18957 -0.75631,-0.74841 -0.57145,-1.24072 z m 4.35246,-13.9548 c 0.12614,-0.50503 0.6602,-0.81625 1.17498,-0.69172 0.53213,0.12874 0.85676,0.66065 0.72991,1.16783 -0.12969,0.51858 -0.66498,0.82932 -1.19494,0.69259 -0.51268,-0.13228 -0.8375,-0.65806 -0.70995,-1.1687 z m -26.20129,51.80982 c 0.32935,-0.40345 0.94518,-0.45747 1.35763,-0.12549 0.42635,0.34317 0.49349,0.9623 0.16315,1.36696 -0.33777,0.41376 -0.95411,0.46733 -1.37567,0.11829 -0.40781,-0.33766 -0.47812,-0.95183 -0.14511,-1.35976 z m -42.58175,35.67687 c 2.59387,-1.31111 5.14135,-2.71033 7.63863,-4.19296 m 3.71264,-5.3084 c 2.47825,-9.4436 8.4203,-14.21959 17.85146,-14.43755 m -4.62274,7.79321 c 2.23652,-1.85345 4.41377,-3.77913 6.52797,-5.77237 m -4.91113,7.72337 c 10.13728,0.21898 17.23725,-6.83535 17.18857,-16.58622 m -33.57644,24.11858 c 0.44067,-0.27622 1.04065,-0.13033 1.32484,0.31578 0.29377,0.46114 0.15918,1.06869 -0.28317,1.34599 -0.45228,0.28353 -1.05282,0.13674 -1.33982,-0.32868 -0.27765,-0.45023 -0.14743,-1.05379 0.29815,-1.33309 z m 11.93281,-8.44043 c 0.40755,-0.32341 1.06268,-0.18971 1.35194,0.1674 0.29111,0.35922 0.27629,1.04473 -0.13267,1.36921 -0.41815,0.33178 -1.03125,0.25235 -1.3681,-0.17843 -0.32586,-0.41675 -0.26326,-1.03117 0.14883,-1.35818 z m 10.9476,-9.70015 c 0.37052,-0.36577 0.98842,-0.3536 1.36289,0.0205 0.3871,0.38673 0.38759,1.00935 0.0159,1.37624 -0.38004,0.37513 -0.99842,0.3624 -1.38007,-0.0297 -0.3692,-0.37928 -0.37335,-0.99725 0.001,-1.36708 z m 9.84989,-10.82193 c 0.32955,-0.40328 0.94541,-0.45701 1.35769,-0.12483 0.42619,0.34338 0.49302,0.96255 0.16248,1.36705 -0.33796,0.41358 -0.95433,0.46685 -1.37572,0.11761 -0.40765,-0.33786 -0.47765,-0.95206 -0.14445,-1.35983 z m -45.54029,36.00884 c 0.46987,-0.22419 1.04986,-0.0105 1.28158,0.46568 0.23953,0.4922 0.0362,1.08123 -0.43564,1.30655 -0.0112,0.005 -0.0224,0.0105 -0.0337,0.0153 -0.47568,0.20489 -1.03474,-0.0115 -1.2614,-0.49578 -0.21927,-0.4685 -0.0347,-1.03791 0.41658,-1.27544 0.0107,-0.006 0.0216,-0.0111 0.0326,-0.0163 z m -53.8259,13.69754 c 2.90577,-0.0733 5.80913,-0.23822 8.70403,-0.49463 m 5.65412,-3.17542 c 6.35486,-7.44337 13.79503,-9.11074 22.35934,-5.2136 m -7.54977,4.99833 c 2.82038,-0.69246 5.61792,-1.47643 8.38659,-2.35191 m -7.78253,4.81225 c 9.01404,4.60912 18.53069,1.34482 22.68482,-7.50244 m -40.72395,7.14648 c 0.51743,-0.0578 0.99508,0.33436 1.05749,0.85997 0.0645,0.54332 -0.32057,1.03254 -0.8396,1.09054 -0.5307,0.0593 -1.00843,-0.33358 -1.06538,-0.87778 -0.0551,-0.52646 0.32432,-1.01431 0.84749,-1.07273 z m 14.42645,-2.40384 c 0.50782,-0.11322 1.03899,0.29284 1.14351,0.74033 0.10528,0.4502 -0.20705,1.06059 -0.71657,1.17423 -0.52099,0.11619 -1.03808,-0.22269 -1.1533,-0.7573 -0.11147,-0.51717 0.2129,-1.04278 0.72636,-1.15726 z m 14.0702,-3.96287 c 0.49198,-0.16867 1.043,0.10998 1.21817,0.60909 0.18109,0.51593 -0.0883,1.0769 -0.58219,1.24619 -0.50496,0.17309 -1.05628,-0.10658 -1.22979,-0.62509 -0.16784,-0.5016 0.0964,-1.05966 0.59381,-1.23019 z m 13.536,-5.52099 c 0.009,-0.004 0.0186,-0.009 0.0279,-0.0127 0.4647,-0.20259 1.02652,0.0122 1.25342,0.4791 0.2345,0.48253 0.0437,1.05778 -0.40843,1.29245 -0.009,0.005 -0.0185,0.009 -0.0279,0.0139 -0.48265,0.22997 -1.06306,0.0147 -1.29484,-0.48117 -0.22422,-0.47973 -0.0253,-1.06494 0.44985,-1.29153 z m -56.643,12.73282 c 0.5208,-0.002 0.95407,0.43862 0.9601,0.96804 0.006,0.54727 -0.42894,0.99276 -0.95131,0.9951 -0.53411,0.002 -0.96736,-0.43925 -0.96601,-0.98655 0.001,-0.52946 0.43063,-0.97424 0.95722,-0.97659 z m -54.61495,-10.16954 c 2.66161,1.16665 5.36168,2.24174 8.09419,3.22526 m 6.45759,-0.51225 c 8.86378,-4.09498 16.33035,-2.54624 22.4961,4.59415 m -8.95454,1.38828 c 2.85277,0.5473 5.72359,1.00305 8.60642,1.36725 m -9.08386,1.12134 c 6.27771,7.96254 16.23615,8.95673 23.73126,2.71886 m -39.96709,-10.57398 c 0.49345,0.16429 0.76254,0.72003 0.59912,1.22307 -0.16894,0.52001 -0.72332,0.80263 -1.21865,0.63773 -0.50646,-0.16861 -0.77522,-0.72534 -0.5987,-1.24284 0.17076,-0.50062 0.71929,-0.78409 1.21823,-0.61796 z m 14.1033,3.83944 c 0.5088,0.10883 0.82227,0.69945 0.73064,1.1498 -0.0921,0.45313 -0.63053,0.87767 -1.14104,0.76843 -0.52197,-0.11169 -0.85062,-0.63535 -0.7324,-1.16929 0.11436,-0.51652 0.62834,-0.85899 1.1428,-0.74894 z m 14.44858,2.2804 c 0.51792,0.0534 0.90145,0.53802 0.85082,1.06494 -0.0523,0.54469 -0.53257,0.94098 -1.05208,0.88741 -0.5312,-0.0548 -0.9146,-0.54014 -0.85469,-1.08401 0.058,-0.52614 0.53228,-0.92231 1.05595,-0.86834 z m 14.61583,0.72107 c 0.52081,-0.002 0.95386,0.43909 0.95963,0.96851 0.006,0.54728 -0.42942,0.99255 -0.9518,0.99464 -0.5341,0.002 -0.96714,-0.43972 -0.96552,-0.98703 0.002,-0.52945 0.43111,-0.97402 0.95769,-0.97612 z m -56.75333,-12.2403 c 0.47188,0.21977 0.67606,0.8031 0.45622,1.28478 -0.22726,0.49791 -0.81093,0.71584 -1.28492,0.49526 -0.48465,-0.22554 -0.68838,-0.8101 -0.45355,-1.30466 0.22718,-0.47844 0.80513,-0.69759 1.28225,-0.47538 z"
         transform="matrix(4.827897,0,0,5.1875568,35.818961,-1240.0967)"
         sodipodi:start="0.23736478"
         sodipodi:end="2.01411"
         sodipodi:arc-type="arc"
         sodipodi:open="true" />
      <path
         style="font-variation-settings:normal;fill:none;fill-opacity:1;stroke:#92b99b;stroke-width:5.03547;stroke-linecap:butt;stroke-linejoin:round;stroke-miterlimit:4;stroke-dasharray:none;stroke-dashoffset:0;stroke-opacity:1;stop-color:#000000"
         id="path13"
         inkscape:path-effect="#path-effect14"
         sodipodi:type="arc"
         sodipodi:cx="-295.01389"
         sodipodi:cy="142.90268"
         sodipodi:rx="134.03522"
         sodipodi:ry="134.03522"
         d="m -269.79114,11.879826 c -2.90546,-0.588243 -5.82856,-1.083904 -8.76336,-1.484764 m -6.33426,1.877246 c -7.98838,5.962818 -15.70761,5.955306 -23.36287,0.210823 m 8.60357,-3.3088639 c -2.95694,0.063425 -5.91147,0.2269422 -8.85766,0.4927713 m 8.80233,-3.0722391 c -7.94245,-6.57661621 -18.19659,-5.4149066 -24.24013,2.5365291 m 42.08882,1.8566866 c -0.52709,-0.05952 -0.91307,-0.557011 -0.85642,-1.0933531 0.0586,-0.5544214 0.55173,-0.9535931 1.08065,-0.8939647 0.54081,0.060968 0.92675,0.5593665 0.86027,1.1129958 -0.0643,0.535576 -0.55154,0.934504 -1.0845,0.874322 z m -14.86993,-0.848176 c -0.52972,-4.35e-4 -0.96731,-0.5220064 -0.97178,-0.9899793 -0.005,-0.4708342 0.44152,-1.0081286 0.97334,-1.0077351 0.54377,4.023e-4 0.98229,0.4523525 0.97773,1.0092966 -0.004,0.538783 -0.44369,0.9888578 -0.97929,0.9884178 z m -14.85921,0.845339 c -0.52623,0.06095 -1.01419,-0.336064 -1.08027,-0.871037 -0.0683,-0.5530057 0.32189,-1.0530586 0.85056,-1.1141723 0.54054,-0.062487 1.02854,0.3359903 1.08831,0.8898644 0.0578,0.5358129 -0.32653,1.0337199 -0.8586,1.0953449 z m -14.67353,2.603118 c -0.51662,0.124618 -1.05095,-0.211524 -1.18185,-0.736548 -0.13532,-0.542722 0.19285,-1.088375 0.71232,-1.213256 0.53113,-0.127686 1.0655,0.210303 1.19196,0.754723 0.12235,0.526667 -0.20008,1.069079 -0.72243,1.195081 z m 59.11422,-0.122864 c -0.51835,-0.116321 -0.84871,-0.653416 -0.73416,-1.181178 0.11841,-0.545551 0.65253,-0.889441 1.1725,-0.772838 0.53166,0.119223 0.8619,0.657053 0.73589,1.200982 -0.1219,0.526192 -0.65012,0.870647 -1.17423,0.753034 z m 52.11306,22.413878 c -2.39467,-1.740358 -4.84713,-3.403174 -7.35145,-4.986225 m -6.54863,-0.922561 c -9.75628,2.105886 -16.86904,-1.140837 -21.38557,-9.652759 m 9.23367,0.64965 c -2.71776,-1.190416 -5.47324,-2.295778 -8.26054,-3.313865 m 9.29899,0.943055 c -4.44708,-9.3459715 -14.11821,-12.5991512 -22.99929,-8.099508 m 37.41085,19.565279 c -0.45527,-0.273182 -0.59999,-0.886619 -0.32543,-1.351442 0.28383,-0.480491 0.89875,-0.638886 1.35543,-0.364745 0.46694,0.280301 0.61117,0.894369 0.32067,1.370743 -0.28102,0.46084 -0.89035,0.621661 -1.35067,0.345444 z m -13.19493,-6.984009 c -0.48239,-0.223271 -0.66134,-0.882448 -0.46835,-1.310367 0.19405,-0.430585 0.82624,-0.731906 1.31004,-0.507926 0.49468,0.229015 0.70393,0.824747 0.46578,1.330003 -0.23038,0.488781 -0.81971,0.714045 -1.30747,0.48829 z m -13.87299,-5.54915 c -0.50341,-0.171068 -0.7748,-0.74081 -0.60443,-1.253733 0.17611,-0.530213 0.74431,-0.815324 1.2492,-0.643773 0.51623,0.175404 0.7874,0.745777 0.60399,1.273533 -0.17742,0.510547 -0.73977,0.796941 -1.24876,0.623973 z M -267.0763,13.48045 c -0.5183,-0.116576 -0.8484,-0.653837 -0.73359,-1.181545 0.11868,-0.545496 0.65298,-0.889124 1.17289,-0.772266 0.5316,0.119484 0.86158,0.65748 0.7353,1.20135 -0.12216,0.526135 -0.65055,0.870332 -1.1746,0.752461 z m 53.79164,24.93773 c -0.42202,-0.320803 -0.49878,-0.945456 -0.17559,-1.376961 0.3341,-0.446051 0.96186,-0.536245 1.38535,-0.214207 0.43301,0.329275 0.5091,0.954662 0.16864,1.395766 -0.32935,0.42672 -0.9517,0.519769 -1.3784,0.195402 z m 37.08739,42.666206 c -1.33853,-2.638465 -2.76963,-5.231295 -4.29326,-7.772161 m -5.44284,-3.750972 c -0.99822,-0.251485 -1.94577,-0.539514 -2.8422,-0.86337 -7.75872,-2.825047 -11.74621,-8.446191 -12.16189,-17.049499 m 8.03766,4.516913 c -1.93475,-2.240576 -3.9474,-4.411136 -6.03199,-6.50946 m 7.98654,4.821691 c 0.001,-10.356431 -7.47154,-17.421097 -17.38511,-17.045746 m 25.30805,33.67986 c -0.28482,-0.447815 -0.14002,-1.061311 0.31362,-1.35472 0.46893,-0.3033 1.09049,-0.16978 1.37649,0.280492 0.29244,0.460391 0.14604,1.074543 -0.32738,1.370183 -0.45798,0.285999 -1.07476,0.156836 -1.36273,-0.295955 z m -8.75985,-12.074464 c -0.33693,-0.409355 -0.21296,-1.079531 0.14551,-1.381258 0.36059,-0.303662 1.05999,-0.301558 1.39875,0.109662 0.34637,0.420466 0.27651,1.0474 -0.15688,1.398577 -0.41926,0.339725 -1.0467,0.286926 -1.38738,-0.126981 z M -201.90991,48.12693 c -0.38245,-0.366332 -0.38786,-0.995111 -0.0181,-1.386931 0.38218,-0.405028 1.01576,-0.423466 1.39983,-0.0556 0.3927,0.376134 0.39721,1.005823 0.009,1.405069 -0.37557,0.386228 -1.00398,0.407858 -1.39068,0.03746 z m -11.32034,-9.667364 c -0.42185,-0.321016 -0.4983,-0.945705 -0.17488,-1.377043 0.33432,-0.445878 0.96212,-0.535751 1.38545,-0.213498 0.43284,0.329493 0.5086,0.954916 0.16793,1.395843 -0.32957,0.42655 -0.95197,0.519279 -1.3785,0.194698 z m 37.42803,45.678003 c -0.22876,-0.477658 -0.0121,-1.068031 0.47206,-1.304426 0.50051,-0.244363 1.10005,-0.03818 1.32976,0.441613 0.23488,0.490571 0.017,1.081465 -0.48713,1.318162 -0.48768,0.228979 -1.08339,0.02762 -1.31469,-0.455349 z m 14.0492,54.863891 c -0.0827,-2.96621 -0.25829,-5.92965 -0.52669,-8.884 m -3.25311,-5.76435 c -7.61036,-6.47244 -9.31244,-14.06494 -5.35012,-22.79956 m 5.10525,7.69022 c -0.71042,-2.8751 -1.51355,-5.72604 -2.40936,-8.54647 m 4.91743,7.92675 c 4.68613,-9.199583 1.33374,-18.883229 -7.67714,-23.099272 m 7.34736,41.504172 c -0.0601,-0.52801 0.33915,-1.01636 0.87546,-1.08118 0.5544,-0.067 1.05453,0.32497 1.11487,0.85457 0.0617,0.5415 -0.33825,1.02997 -0.89358,1.08929 -0.53723,0.0574 -1.03599,-0.3288 -1.09675,-0.86268 z m -2.47911,-14.71624 c -0.11627,-0.5178 0.29707,-1.06019 0.7533,-1.1675 0.45899,-0.10808 1.08205,0.20948 1.1988,0.72898 0.11938,0.53117 -0.22543,1.05915 -0.77055,1.17756 -0.52735,0.11454 -1.06399,-0.21548 -1.18155,-0.73904 z m -4.05847,-14.338762 c -0.17241,-0.501058 0.11081,-1.062758 0.61905,-1.241836 0.52538,-0.185114 1.09723,0.08862 1.27036,0.591557 0.17702,0.514234 -0.1072,1.076318 -0.6353,1.25376 -0.51087,0.171655 -1.07979,-0.09686 -1.25411,-0.603481 z m -5.63576,-13.774769 c -0.2285,-0.477781 -0.0116,-1.068036 0.47276,-1.30417 0.50065,-0.244092 1.10007,-0.03758 1.32953,0.442327 0.23461,0.490692 0.0164,1.081468 -0.48784,1.317894 -0.4878,0.228717 -1.08341,0.02704 -1.31445,-0.456051 z m 13.0723,57.742681 c -0.004,-0.53169 0.4451,-0.97524 0.98556,-0.98287 0.55868,-0.008 1.01467,0.43511 1.01854,0.96835 0.004,0.54523 -0.44567,0.98877 -1.0044,0.98896 -0.54051,1.8e-4 -0.9958,-0.43684 -0.9997,-0.97444 z m -10.16355,55.7365 c 1.17716,-2.71327 2.26116,-5.46664 3.25204,-8.2538 m -0.54841,-6.57727 c -4.21045,-9.01764 -2.6708,-16.64346 4.59511,-22.9632 m 1.44998,9.13179 c 0.54744,-2.91218 1.00186,-5.84306 1.3633,-8.7863 m 1.17711,9.26385 c 8.10013,-6.43393 9.08569,-16.59383 2.69512,-24.22653 m -10.63992,40.80989 c 0.16538,-0.50342 0.73051,-0.77985 1.24373,-0.61535 0.53052,0.17004 0.82068,0.73377 0.65462,1.23908 -0.1698,0.51667 -0.73592,0.79268 -1.26384,0.61493 -0.51069,-0.17196 -0.80171,-0.72964 -0.63451,-1.23866 z m 3.85683,-14.39281 c 0.10901,-0.51937 0.7102,-0.8414 1.1699,-0.74968 0.46254,0.0922 0.89762,0.63975 0.78815,1.16083 -0.11192,0.53279 -0.64473,0.86998 -1.18974,0.7515 -0.52723,-0.11462 -0.87853,-0.63749 -0.76831,-1.16265 z m 2.27296,-14.75098 c 0.0527,-0.5288 0.54602,-0.92192 1.084,-0.87204 0.55611,0.0516 0.96221,0.54035 0.9093,1.07074 -0.0541,0.54231 -0.54814,0.93528 -1.10341,0.87602 -0.53717,-0.0573 -0.94316,-0.54005 -0.88989,-1.07472 z m 0.68991,-14.92257 c -0.004,-0.53169 0.44558,-0.97503 0.98604,-0.98239 0.55868,-0.008 1.01446,0.4356 1.01806,0.96885 0.004,0.54522 -0.44614,0.98854 -1.00487,0.98846 -0.54052,-8e-5 -0.99559,-0.43732 -0.99923,-0.97492 z m -12.26244,57.92011 c 0.22179,-0.48094 0.81454,-0.6909 1.30549,-0.46902 0.5075,0.22937 0.7314,0.82245 0.50869,1.30553 -0.22772,0.49393 -0.82172,0.70335 -1.32573,0.46627 -0.48756,-0.22935 -0.7127,-0.81651 -0.48845,-1.30278 z m -33.91557,45.21488 c 2.28893,-1.87502 4.51507,-3.82524 6.6725,-5.84835 m 2.52104,-6.0951 c 0.33823,-9.02213 4.28161,-14.77815 11.89984,-17.60858 0.79585,-0.29342 1.63204,-0.5557 2.50778,-0.78621 m -2.75929,8.8214 c 1.37168,-1.79971 2.69513,-3.63871 3.96772,-5.51597 0.39429,-0.58163 0.78336,-1.16643 1.1672,-1.75433 m -3.07853,8.8376 c 2.86951,-0.60172 5.38759,-1.74501 7.46361,-3.31938 5.19388,-3.97693 7.36162,-10.48418 5.58463,-17.32115 m -27.65923,31.80897 c 0.37728,-0.37166 1.00595,-0.35879 1.38687,0.0222 0.39377,0.39379 0.39379,1.02765 0.0149,1.40087 -0.38739,0.3816 -1.01693,0.3678 -1.40473,-0.0318 -0.37515,-0.38662 -0.37852,-1.0154 0.003,-1.39118 z m 9.97291,-11.05001 c 0.33116,-0.41403 1.01265,-0.43062 1.38178,-0.14173 0.37147,0.29057 0.5131,0.97565 0.18014,1.39157 -0.34045,0.42528 -0.96822,0.48564 -1.40083,0.13386 -0.4185,-0.34031 -0.49594,-0.96506 -0.16109,-1.3837 z m 8.59062,-12.19724 c 0.27851,-0.45176 0.89344,-0.58952 1.35537,-0.30995 0.47751,0.289 0.6293,0.90614 0.34964,1.36038 -0.28595,0.46444 -0.90246,0.60151 -1.37559,0.30479 -0.45769,-0.28704 -0.61102,-0.89844 -0.32942,-1.35522 z m 7.03615,-13.12452 c 0.22205,-0.48081 0.81491,-0.69046 1.30574,-0.46831 0.50738,0.22963 0.73097,0.82284 0.50799,1.3058 -0.22798,0.49381 -0.82209,0.70291 -1.32597,0.46556 -0.48745,-0.22961 -0.71227,-0.81689 -0.48776,-1.30305 z m -36.78456,46.19775 c 0.41731,-0.32689 1.04096,-0.24284 1.37645,0.17906 0.34679,0.43613 0.27505,1.06622 -0.14373,1.39437 -0.42818,0.33552 -1.05249,0.25072 -1.393,-0.19045 -0.3294,-0.42678 -0.26167,-1.05246 0.16028,-1.38298 z m -50.41471,25.98854 c 2.86906,-0.75098 5.71527,-1.59274 8.53271,-2.52299 m 4.88125,-4.47545 c 4.58749,-8.88275 11.63043,-12.27929 21.05534,-10.3538 m -6.37039,6.7056 c 2.64695,-1.33878 5.25108,-2.76055 7.80651,-4.26301 m -6.63864,6.57205 c 10.03227,2.5126 18.69875,-2.89433 20.8476,-12.60683 m -38.87106,16.43635 c 0.50096,-0.1781 1.06726,0.10043 1.2518,0.60845 0.19077,0.52514 -0.0781,1.10123 -0.5805,1.27984 -0.51372,0.18262 -1.08021,-0.0966 -1.26371,-0.62426 -0.17752,-0.51049 0.0859,-1.08395 0.59241,-1.26403 z m 13.79256,-5.74236 c 0.47921,-0.23 1.10154,0.0514 1.30882,0.47255 0.20866,0.42365 0.0389,1.10305 -0.44176,1.33378 -0.49142,0.23592 -1.08417,0.0183 -1.32241,-0.48699 -0.23048,-0.48879 -0.0292,-1.08678 0.45535,-1.31934 z m 13.09708,-7.16885 c 0.45139,-0.27954 1.06292,-0.12723 1.35035,0.32964 0.29712,0.47227 0.15639,1.09143 -0.2964,1.37194 -0.46296,0.28682 -1.07497,0.13386 -1.36548,-0.34262 -0.28103,-0.46094 -0.14488,-1.07632 0.31153,-1.35896 z m 12.22792,-8.52711 c 0.41748,-0.32668 1.04109,-0.24231 1.37636,0.17977 0.34658,0.43631 0.27451,1.06636 -0.14443,1.3943 -0.42836,0.33531 -1.05262,0.25018 -1.39291,-0.19116 -0.32919,-0.42695 -0.26114,-1.0526 0.16098,-1.38291 z m -53.43717,25.68848 c 0.51662,-0.12382 1.04976,0.21299 1.17925,0.73737 0.13386,0.54205 -0.1944,1.08597 -0.71263,1.2101 -0.52987,0.12692 -1.0631,-0.21064 -1.18938,-0.75442 -0.12216,-0.52606 0.20041,-1.06785 0.72276,-1.19305 z m -56.52771,2.30847 c 2.90829,0.58433 5.83366,1.06227 8.7702,1.43613 m 6.30424,-1.94592 c 7.87876,-6.0465 15.59401,-6.22092 23.35706,-0.55817 m -8.564,3.43505 c 2.95632,-0.10897 5.90977,-0.31654 8.85444,-0.6204 m -8.75937,3.19933 c 8.06111,6.47166 18.20302,5.14953 24.19051,-2.7858 m -42.09216,-1.35022 c 0.52703,0.0536 0.91829,0.54608 0.86796,1.08264 -0.052,0.55466 -0.54035,0.95929 -1.06982,0.90559 -0.54136,-0.0549 -0.93255,-0.54888 -0.87198,-1.10278 0.0586,-0.53585 0.54095,-0.93961 1.07384,-0.88545 z m 14.86813,0.63699 c 0.52966,-0.008 0.97536,0.50686 0.98711,0.97474 0.0119,0.47074 -0.42581,1.01492 -0.95757,1.02276 -0.54371,0.008 -0.98919,-0.43706 -0.99329,-0.99396 -0.004,-0.53875 0.4282,-0.9956 0.96375,-1.00354 z m 14.85807,-1.05651 c 0.52621,-0.0669 1.01897,0.3252 1.09076,0.85982 0.0742,0.55265 -0.31067,1.05712 -0.83871,1.12416 -0.53989,0.0685 -1.03266,-0.32448 -1.09896,-0.87803 -0.0641,-0.5355 0.31485,-1.03831 0.84691,-1.10595 z m 14.67396,-2.683 c 0.51668,-0.12356 1.04965,0.21351 1.17889,0.73795 0.13359,0.54211 -0.19494,1.08587 -0.71323,1.20974 -0.52993,0.12666 -1.06299,-0.21116 -1.189,-0.755 -0.1219,-0.52611 0.20094,-1.06775 0.72334,-1.19269 z m -59.11016,0.70505 c 0.51831,0.11737 0.84827,0.65525 0.73329,1.18358 -0.11885,0.54613 -0.6543,0.8902 -1.17546,0.7726 -0.53287,-0.12023 -0.86276,-0.65995 -0.73504,-1.20451 0.12356,-0.5268 0.65314,-0.87034 1.17721,-0.75167 z"
         transform="matrix(4.827897,0,0,5.1875568,313.09481,-635.13109)"
         sodipodi:start="4.4680429"
         sodipodi:end="1.8011798"
         sodipodi:arc-type="arc"
         sodipodi:open="true" />
      <path
         style="font-variation-settings:normal;fill:none;fill-opacity:1;stroke:#92b99b;stroke-width:5.03547;stroke-linecap:butt;stroke-linejoin:round;stroke-miterlimit:4;stroke-dasharray:none;stroke-dashoffset:0;stroke-opacity:1;stop-color:#000000"
         id="path14"
         inkscape:path-effect="#path-effect16"
         sodipodi:type="arc"
         sodipodi:cx="-295.01389"
         sodipodi:cy="142.90268"
         sodipodi:rx="134.03522"
         sodipodi:ry="134.03522"
         d="m -292.81505,9.1078074 c -2.9348,-0.050081 -5.87112,-0.00688 -8.80273,0.1298283 m -5.8375,2.9666213 c -6.72165,7.244678 -14.28681,8.619622 -22.7698,4.341648 m 7.81967,-4.736431 c -2.87399,0.583426 -5.72849,1.26087 -8.55728,2.03255 m 8.04833,-4.5396506 c -8.90878,-5.0191295 -18.65085,-2.1036796 -23.19215,6.6604276 m 41.379,-5.554666 c -0.52445,0.0366 -0.98993,-0.379068 -1.03089,-0.9120021 -0.0423,-0.5508977 0.36673,-1.0283759 0.89287,-1.0651229 0.53797,-0.037573 1.00351,0.3788885 1.0381,0.9303611 0.0335,0.5334898 -0.36979,1.0097619 -0.90008,1.0467639 z m -14.65462,1.826715 c -0.51699,0.09339 -1.03626,-0.338088 -1.12339,-0.793876 -0.0878,-0.458554 0.2524,-1.061637 0.77119,-1.155392 0.53046,-0.09586 1.03829,0.267313 1.13258,0.811456 0.0912,0.526398 -0.25764,1.043381 -0.78038,1.137812 z m -14.35626,3.427062 c -0.50313,0.15042 -1.04789,-0.152807 -1.20464,-0.663405 -0.16203,-0.527809 0.13229,-1.083018 0.63741,-1.234012 0.51646,-0.154385 1.0615,0.149939 1.21572,0.680062 0.14919,0.512837 -0.13978,1.065266 -0.64849,1.217355 z m -13.87488,5.033028 c -0.48285,0.207665 -1.05963,-0.03089 -1.2746,-0.520618 -0.22223,-0.506234 0.006,-1.092517 0.49152,-1.300963 0.49599,-0.213129 1.07316,0.02678 1.28754,0.536202 0.20739,0.492806 -0.0163,1.075409 -0.50446,1.285379 z m 57.66141,-10.519826 c -0.5255,-0.01998 -0.94372,-0.4834126 -0.92712,-1.0178087 0.0172,-0.5524094 0.4753,-0.9832301 1.00245,-0.9631832 0.539,0.020498 0.95716,0.4846837 0.93229,1.0367983 -0.0241,0.5341108 -0.47628,0.9643986 -1.00762,0.9441936 z m 54.62514,12.717691 c -2.6295,-1.303621 -5.30257,-2.515426 -8.01299,-3.635198 m -6.53701,0.217115 c -9.12775,3.721927 -16.57647,1.827568 -22.47982,-5.647919 m 9.09393,-1.002115 c -2.85319,-0.68005 -5.72894,-1.26755 -8.62104,-1.762284 m 9.21427,-0.726669 c -5.97798,-8.3155338 -15.9924,-9.7570946 -23.82491,-3.7866364 m 39.84499,12.4509964 c -0.49009,-0.188622 -0.73575,-0.76165 -0.54759,-1.261514 0.1945,-0.516714 0.76684,-0.776116 1.25889,-0.586769 0.5031,0.193601 0.74835,0.7677 0.54622,1.281507 -0.19553,0.497052 -0.76198,0.757492 -1.25752,0.566776 z m -14.04932,-4.517607 c -0.50829,-0.132719 -0.79789,-0.7426 -0.68519,-1.192763 0.11328,-0.452945 0.6756,-0.856954 1.18567,-0.723732 0.52155,0.136218 0.82944,0.679313 0.68607,1.212572 -0.13869,0.515871 -0.6726,0.838119 -1.18655,0.703923 z m -14.47261,-2.943086 c -0.5201,-0.07659 -0.88573,-0.582326 -0.81155,-1.111676 0.0767,-0.5471939 0.57857,-0.9259188 1.10035,-0.8490457 0.53351,0.0786 0.89896,0.5851237 0.81459,1.1311487 -0.0816,0.52822 -0.57751,0.907014 -1.10339,0.829573 z m -14.71286,-1.361694 c -0.52549,-0.02024 -0.94348,-0.4838779 -0.92662,-1.0182658 0.0174,-0.5524009 0.47579,-0.9829957 1.00293,-0.9626887 0.53899,0.020763 0.95692,0.4851556 0.93178,1.0372577 -0.0243,0.5340988 -0.47676,0.9641638 -1.00809,0.9436968 z m 56.68335,14.90911 c -0.46546,-0.244304 -0.64352,-0.842524 -0.39871,-1.31794 0.25306,-0.49144 0.85235,-0.683386 1.32001,-0.438132 0.0111,0.0058 0.022,0.01181 0.0328,0.01799 0.45346,0.260715 0.61666,0.843689 0.36214,1.3199 -0.24623,0.460683 -0.81828,0.655846 -1.28329,0.434643 -0.011,-0.0053 -0.022,-0.01074 -0.0329,-0.01647 z m 43.5495,35.324631 c -1.80745,-2.312703 -3.68835,-4.56786 -5.639,-6.760483 m -5.97841,-2.6707 c -9.85969,-0.666115 -15.68719,-5.679245 -17.70168,-14.963188 m 8.60182,3.095854 c -2.26194,-1.866364 -4.58481,-3.658308 -6.9649,-5.370844 m 8.59301,3.397653 c -1.70565,-10.081797 -10.10462,-15.819874 -19.77453,-13.830409 m 30.35846,28.66101 c -0.3584,-0.384604 -0.32818,-1.007906 0.0603,-1.375039 0.40154,-0.37951 1.03003,-0.361973 1.38961,0.02385 0.36767,0.394496 0.33687,1.018353 -0.07,1.392198 -0.3936,0.361654 -1.01749,0.347863 -1.37987,-0.04101 z m -10.64019,-10.240198 c -0.39789,-0.343016 -0.38932,-1.018077 -0.0899,-1.372595 0.30113,-0.356762 0.98388,-0.471891 1.3832,-0.127694 0.40829,0.351935 0.4456,0.975134 0.082,1.390807 -0.3517,0.402119 -0.97299,0.456312 -1.37531,0.109482 z m -11.69802,-8.999513 c -0.43357,-0.29628 -0.54084,-0.910455 -0.24274,-1.353658 0.30816,-0.458142 0.92486,-0.578913 1.36014,-0.281436 0.44505,0.304159 0.55164,0.919255 0.23676,1.372771 -0.30461,0.438727 -0.91577,0.561892 -1.35416,0.262323 z m -12.64603,-7.612299 c -0.009,-0.0048 -0.0182,-0.0098 -0.0272,-0.01487 -0.44486,-0.253191 -0.61103,-0.837377 -0.3708,-1.303288 0.24827,-0.48151 0.82885,-0.675241 1.29214,-0.451593 0.009,0.0046 0.0188,0.0093 0.0281,0.01418 0.47796,0.251186 0.65499,0.850738 0.39417,1.338102 -0.25232,0.471472 -0.84583,0.664583 -1.31642,0.417473 z m 44.46118,38.190134 c -0.31508,-0.421044 -0.21797,-1.037679 0.20785,-1.360986 0.44018,-0.334205 1.06329,-0.249132 1.37936,0.173233 0.32317,0.431857 0.22544,1.048929 -0.21937,1.37695 -0.4303,0.317325 -1.04927,0.236525 -1.36784,-0.189197 z m 24.49229,50.457414 c -0.64263,-2.86333 -1.38381,-5.70289 -2.21982,-8.51371 m -4.28331,-4.94295 c -8.63772,-4.7509 -11.85336,-11.733977 -9.75728,-21.026267 m 6.50117,6.437888 c -1.26685,-2.645529 -2.61973,-5.250424 -4.05491,-7.809696 m 6.36272,6.704563 c 2.70141,-9.878556 -2.47823,-18.568961 -12.04708,-20.900941 m 15.3956,38.803693 c -0.16191,-0.49955 0.12874,-1.05111 0.63559,-1.21953 0.52394,-0.17408 1.08574,0.10739 1.24831,0.6089 0.16622,0.51278 -0.12551,1.06469 -0.65198,1.23103 -0.50929,0.16092 -1.06821,-0.1153 -1.23192,-0.6204 z m -5.33133,-13.761585 c -0.21672,-0.478579 0.0751,-1.087453 0.49585,-1.283137 0.42332,-0.196988 1.09118,-0.01418 1.30862,0.466085 0.22233,0.491067 -0.006,1.072124 -0.51068,1.296277 -0.48822,0.216844 -1.07466,0.0047 -1.29379,-0.479225 z m -6.8192,-13.101007 c -0.26771,-0.452465 -0.10465,-1.054866 0.35348,-1.330263 0.47358,-0.28468 1.08374,-0.132856 1.35228,0.321087 0.27458,0.464139 0.1108,1.066903 -0.3667,1.344878 -0.46193,0.268911 -1.06838,0.121786 -1.33906,-0.335702 z m -8.19823,-12.293091 c -0.31487,-0.4212 -0.21746,-1.037788 0.20852,-1.360885 0.44035,-0.333988 1.06342,-0.248607 1.37928,0.173915 0.32295,0.432013 0.22492,1.049038 -0.22005,1.37684 -0.43046,0.317113 -1.04939,0.236006 -1.36775,-0.18987 z m 24.08575,53.435783 c -0.10327,-0.51537 0.24932,-1.03029 0.77274,-1.13941 0.54105,-0.11281 1.06742,0.23187 1.17132,0.74953 0.10624,0.52929 -0.24771,1.0446 -0.7906,1.14915 -0.52518,0.10113 -1.04904,-0.23817 -1.15346,-0.75927 z"
         transform="matrix(4.827897,0,0,5.1875568,-254.06035,-635.13109)"
         sodipodi:start="4.2987459"
         sodipodi:end="6.0929444"
         sodipodi:arc-type="arc"
         sodipodi:open="true" />
      <path
         style="fill:none;stroke-width:1.57422;stroke-linejoin:round;stroke-dasharray:none"
         d="m 2349.2293,1155.2415 c -2.5969,0.038 -5.1522,1.4468 -6.4562,3.7129 -0.6407,1.1038 -1.1115,2.3585 -1.0281,3.6543 -0.035,0.9455 0.01,1.9086 0.3758,2.7942 0.8804,2.5597 3.2058,4.5439 5.878,4.9912 2.9285,0.5329 6.1146,-0.8404 7.6891,-3.3792 1.1004,-1.6723 1.4503,-3.7729 1.0478,-5.7254 -0.6666,-3.4587 -3.9816,-6.139 -7.5064,-6.048 z"
         id="path3"
         transform="translate(-2344.6762,-1216.9692)" />
      <path
         style="fill:none;stroke-width:2.35311;stroke-linejoin:round;stroke-dasharray:none"
         d="m 2349.1769,1155.2884 c -3.2998,-0.021 -6.3829,2.4169 -7.2094,5.5986 -0.6853,2.5945 0.055,5.5322 2.0069,7.4018 2.3048,2.3015 6.1493,2.9182 8.9872,1.2498 2.5763,-1.4155 4.1904,-4.406 3.8752,-7.342 -0.223,-3.695 -3.573,-6.8722 -7.2738,-6.9047 -0.1287,0 -0.2574,0 -0.3861,0 z"
         id="path5"
         transform="translate(-2344.6762,-1216.9692)" />
      <path
         style="fill:none;stroke-width:6.55976;stroke-linejoin:round;stroke-dasharray:none"
         d="m 2371.6527,1177.2371 c -4.0848,-0.019 -7.3473,3.8883 -7.0074,7.8766 0.01,4.8213 5.5139,8.4375 9.9427,6.5625 3.9204,-1.3216 5.9421,-6.1078 4.3031,-9.872 -1.0817,-2.9273 -4.1546,-4.7764 -7.2384,-4.5671 z"
         id="path15"
         transform="translate(-2367.4163,-1238.7736)" />
      <path
         style="fill:#000000;stroke-width:1.41024;stroke-linejoin:round;stroke-dasharray:none"
         d="m 2371.9325,1177.0491 c -2.838,0.015 -5.574,1.7627 -6.7696,4.3385 -1.3881,2.8307 -0.7692,6.5078 1.5168,8.6925 1.3625,1.398 3.3042,2.2104 5.2521,2.2246 1.7129,0.023 3.4384,-0.5306 4.7806,-1.6015 0.9725,-0.8171 1.8397,-1.7965 2.3078,-2.9935 1.0561,-2.3788 0.7591,-5.2914 -0.7506,-7.4111 -1.4057,-2.0502 -3.8479,-3.3151 -6.3371,-3.2495 z"
         id="path24"
         transform="translate(-2367.4163,-1238.7736)" />
      <path
         style="fill:#000000;stroke-width:1.41024;stroke-linejoin:round;stroke-dasharray:none"
         d="m 2371.8339,1247.3808 c -1.7036,-0.021 -3.3675,0.686 -4.6802,1.7442 -1.7907,1.4763 -2.8487,3.8086 -2.7078,6.134 0.014,1.6486 0.6716,3.263 1.6885,4.5455 1.1758,1.4248 2.8611,2.4253 4.6926,2.7083 0.9471,0.1784 1.9309,0.087 2.8736,-0.077 1.6242,-0.3754 3.1246,-1.2696 4.1829,-2.5646 1.0607,-1.2543 1.68,-2.8841 1.7547,-4.5226 0.1414,-2.5344 -1.0731,-5.0998 -3.1535,-6.5624 -1.3054,-0.914 -2.8954,-1.4981 -4.5047,-1.406 -0.049,2e-4 -0.097,4e-4 -0.1461,5e-4 z"
         id="path25"
         transform="translate(-2367.4163,-1238.7736)" />
      <path
         style="fill:#000000;stroke-width:1.41024;stroke-linejoin:round;stroke-dasharray:none"
         d="m 2371.9444,1317.6827 c -2.0377,-0.018 -4.0376,0.872 -5.4223,2.3607 -1.5147,1.5447 -2.2607,3.765 -2.0635,5.9122 0.16,2.6519 1.8188,5.2075 4.2756,6.2811 1.8772,0.8719 4.0666,0.8498 6.0188,0.2491 2.4726,-0.8 4.2983,-3.0886 4.7415,-5.6217 0.4398,-2.2371 -0.089,-4.6867 -1.5985,-6.4253 -1.2652,-1.5394 -3.1334,-2.6018 -5.1387,-2.7271 -0.2703,-0.022 -0.5417,-0.031 -0.8129,-0.029 z"
         id="path26"
         transform="translate(-2367.4163,-1238.7736)" />
      <path
         style="fill:#000000;stroke-width:1.41024;stroke-linejoin:round;stroke-dasharray:none"
         d="m 2371.9986,1387.9822 c -1.9825,-0.026 -3.9365,0.8081 -5.3291,2.2123 -2.3342,2.214 -2.8916,5.9742 -1.4408,8.8213 1.0121,2.0898 3.0466,3.6082 5.3159,4.0587 0.9063,0.2139 1.8537,0.1446 2.7713,0.051 2.2933,-0.3911 4.371,-1.8712 5.447,-3.9397 0.5812,-1.1226 0.9373,-2.3834 0.854,-3.6557 0.073,-1.5336 -0.4693,-3.0551 -1.3389,-4.3034 -1.1313,-1.5988 -2.8636,-2.7598 -4.7926,-3.1329 -0.4882,-0.099 -0.9902,-0.1133 -1.4868,-0.1116 z"
         id="path27"
         transform="translate(-2367.4163,-1238.7736)" />
      <path
         style="fill:#000000;stroke-width:1.41024;stroke-linejoin:round;stroke-dasharray:none"
         d="m 2372.0039,1458.2939 c -3.0349,-0.045 -5.9615,1.9604 -7.0442,4.7917 -0.6476,1.6002 -0.6786,3.4226 -0.205,5.0726 0.7016,2.2993 2.5442,4.2075 4.8298,4.9628 1.2992,0.4858 2.7264,0.4722 4.078,0.2516 2.0379,-0.4546 3.875,-1.7507 4.9257,-3.5633 0.1551,-0.2678 0.4737,-0.5971 0.1609,-0.8799 -2.0826,-3.2705 -3.7802,-6.7656 -5.1256,-10.4033 -0.3339,-0.2805 -0.8474,-0.1948 -1.2646,-0.2337 -0.1184,-9e-4 -0.2367,-4e-4 -0.355,0 z"
         id="path28"
         transform="translate(-2367.4163,-1238.7736)" />
      <path
         style="fill:#000000;stroke-width:1.41024;stroke-linejoin:round;stroke-dasharray:none"
         d="m 2376.1745,1459.6206 c -0.2703,0.2523 0.088,0.6037 0.1472,0.8805 0.8861,1.9972 1.829,3.989 2.9713,5.8468 0.3996,0.2162 0.3427,-0.4087 0.3477,-0.6576 -0.037,-1.8944 -0.8237,-3.7537 -2.1483,-5.1085 -0.3548,-0.3615 -0.7296,-0.7223 -1.1693,-0.9763 -0.05,0.01 -0.099,0.01 -0.1486,0.015 z"
         id="path29"
         transform="translate(-2367.4163,-1238.7736)" />
    </g>
    <rect
       style="font-variation-settings:normal;opacity:1;fill:none;fill-opacity:1;stroke:none;stroke-width:25.2;stroke-linecap:butt;stroke-linejoin:round;stroke-miterlimit:4;stroke-dasharray:none;stroke-dashoffset:0;stroke-opacity:1"
       id="rect4"
       width="115.0486"
       height="59.280777"
       x="-514.70062"
       y="-79.609291"
       ry="14.034208" />
  </g>
</svg>
