<?xml version="1.0" encoding="UTF-8" standalone="no"?>
<!-- Created with Inkscape (http://www.inkscape.org/) -->

<svg
   width="14.180226mm"
   height="11.485058mm"
   viewBox="0 0 14.180226 11.485058"
   version="1.1"
   id="svg5"
   sodipodi:docname="icon.svg"
   inkscape:version="1.1.1 (3bf5ae0d25, 2021-09-20)"
   xmlns:inkscape="http://www.inkscape.org/namespaces/inkscape"
   xmlns:sodipodi="http://sodipodi.sourceforge.net/DTD/sodipodi-0.dtd"
   xmlns:xlink="http://www.w3.org/1999/xlink"
   xmlns="http://www.w3.org/2000/svg"
   xmlns:svg="http://www.w3.org/2000/svg">
  <sodipodi:namedview
     id="namedview7"
     pagecolor="#ffffff"
     bordercolor="#666666"
     borderopacity="1.0"
     inkscape:pageshadow="2"
     inkscape:pageopacity="0.0"
     inkscape:pagecheckerboard="0"
     inkscape:document-units="mm"
     showgrid="false"
     inkscape:zoom="3.3241617"
     inkscape:cx="-62.722581"
     inkscape:cy="-10.980212"
     inkscape:window-width="1920"
     inkscape:window-height="1080"
     inkscape:window-x="0"
     inkscape:window-y="0"
     inkscape:window-maximized="1"
     inkscape:current-layer="layer1" />
  <defs
     id="defs2">
    <g
       id="g2733">
      <symbol
         overflow="visible"
         id="symbol8384">
        <path
           style="stroke:none"
           d=""
           id="path9762" />
      </symbol>
      <symbol
         overflow="visible"
         id="symbol6148">
        <path
           style="stroke:none"
           d="M 3.6875,-6.921875 C 3.625,-7.125 3.5625,-7.140625 3.453125,-7.140625 c -0.15625,0 -0.171875,0.046875 -0.21875,0.21875 L 1.3125,-1 c -0.09375,0.296875 -0.296875,0.6875 -1,0.6875 V 0 c 0.328125,-0.015625 0.84375,-0.03125 0.9375,-0.03125 0.28125,0 0.8125,0.015625 1.125,0.03125 v -0.3125 c -0.546875,0 -0.765625,-0.28125 -0.765625,-0.515625 0,-0.046875 0,-0.078125 0.046875,-0.21875 l 1.5,-4.640625 1.5625,4.90625 c 0.0625,0.140625 0.0625,0.15625 0.0625,0.171875 0,0.296875 -0.59375,0.296875 -0.859375,0.296875 V 0 c 0.359375,-0.03125 1.0625,-0.03125 1.4375,-0.03125 0.390625,0 0.84375,0.015625 1.234375,0.03125 v -0.3125 c -0.765625,0 -0.796875,-0.0625 -0.90625,-0.421875 z m 0,0"
           id="path6259" />
      </symbol>
      <symbol
         overflow="visible"
         id="symbol7861">
        <path
           style="stroke:none"
           d=""
           id="path9088" />
      </symbol>
      <symbol
         overflow="visible"
         id="symbol922">
        <path
           style="stroke:none"
           d="m 0.84375,-0.4375 c -0.015625,0.09375 -0.0625,0.265625 -0.0625,0.28125 0,0.15625 0.125,0.21875 0.234375,0.21875 0.125,0 0.234375,-0.078125 0.28125,-0.140625 0.03125,-0.0625 0.078125,-0.296875 0.125,-0.4375 0.03125,-0.125 0.109375,-0.453125 0.140625,-0.625 0.046875,-0.15625 0.09375,-0.3125 0.125,-0.46875 0.078125,-0.28125 0.09375,-0.34375 0.296875,-0.625 C 2.171875,-2.515625 2.5,-2.875 3.03125,-2.875 c 0.390625,0 0.40625,0.359375 0.40625,0.484375 0,0.421875 -0.296875,1.1875 -0.40625,1.484375 -0.078125,0.203125 -0.109375,0.265625 -0.109375,0.375 0,0.375 0.296875,0.59375 0.65625,0.59375 0.703125,0 1,-0.953125 1,-1.0625 0,-0.09375 -0.078125,-0.09375 -0.109375,-0.09375 -0.09375,0 -0.09375,0.046875 -0.125,0.125 C 4.1875,-0.40625 3.875,-0.125 3.609375,-0.125 c -0.15625,0 -0.1875,-0.09375 -0.1875,-0.25 0,-0.15625 0.046875,-0.25 0.171875,-0.5625 0.078125,-0.21875 0.359375,-0.953125 0.359375,-1.34375 0,-0.671875 -0.53125,-0.796875 -0.90625,-0.796875 -0.578125,0 -0.96875,0.359375 -1.171875,0.640625 -0.046875,-0.484375 -0.453125,-0.640625 -0.75,-0.640625 -0.296875,0 -0.453125,0.21875 -0.546875,0.375 -0.15625,0.265625 -0.25,0.65625 -0.25,0.703125 0,0.078125 0.09375,0.078125 0.125,0.078125 0.09375,0 0.09375,-0.015625 0.140625,-0.203125 0.109375,-0.40625 0.25,-0.75 0.515625,-0.75 0.1875,0 0.234375,0.15625 0.234375,0.34375 0,0.125 -0.0625,0.390625 -0.125,0.578125 -0.046875,0.1875 -0.109375,0.46875 -0.140625,0.625 z m 0,0"
           id="path1979" />
      </symbol>
      <symbol
         overflow="visible"
         id="symbol6415">
        <path
           style="stroke:none"
           d="m 2.265625,-4.359375 c 0,-0.109375 -0.09375,-0.265625 -0.28125,-0.265625 -0.1875,0 -0.390625,0.1875 -0.390625,0.390625 0,0.109375 0.078125,0.265625 0.28125,0.265625 0.1875,0 0.390625,-0.203125 0.390625,-0.390625 z M 0.84375,-0.8125 c -0.03125,0.09375 -0.0625,0.171875 -0.0625,0.296875 0,0.328125 0.265625,0.578125 0.65625,0.578125 0.6875,0 1,-0.953125 1,-1.0625 0,-0.09375 -0.09375,-0.09375 -0.109375,-0.09375 -0.09375,0 -0.109375,0.046875 -0.140625,0.125 -0.15625,0.5625 -0.453125,0.84375 -0.734375,0.84375 -0.140625,0 -0.171875,-0.09375 -0.171875,-0.25 0,-0.15625 0.046875,-0.28125 0.109375,-0.4375 C 1.46875,-1 1.546875,-1.1875 1.609375,-1.375 1.671875,-1.546875 1.9375,-2.171875 1.953125,-2.265625 1.984375,-2.328125 2,-2.40625 2,-2.484375 2,-2.8125 1.71875,-3.078125 1.34375,-3.078125 0.640625,-3.078125 0.328125,-2.125 0.328125,-2 c 0,0.078125 0.09375,0.078125 0.125,0.078125 0.09375,0 0.09375,-0.03125 0.125,-0.109375 C 0.75,-2.625 1.0625,-2.875 1.3125,-2.875 c 0.109375,0 0.171875,0.046875 0.171875,0.234375 0,0.171875 -0.03125,0.265625 -0.203125,0.703125 z m 0,0"
           id="path5623" />
      </symbol>
    </g>
    <g
       id="g5414">
      <symbol
         overflow="visible"
         id="symbol3086">
        <path
           style="stroke:none"
           d=""
           id="path5836" />
      </symbol>
      <symbol
         overflow="visible"
         id="symbol3738">
        <path
           style="stroke:none"
           d="m 4.40625,-6.953125 c -0.0625,-0.140625 -0.09375,-0.1875 -0.265625,-0.1875 -0.15625,0 -0.1875,0.046875 -0.25,0.1875 l -3.375,6.75 C 0.46875,-0.109375 0.46875,-0.09375 0.46875,-0.078125 0.46875,0 0.53125,0 0.6875,0 h 6.921875 c 0.15625,0 0.21875,0 0.21875,-0.078125 0,-0.015625 0,-0.03125 -0.046875,-0.125 z m -0.578125,0.8125 2.6875,5.390625 h -5.375 z m 0,0"
           id="path3832" />
      </symbol>
      <symbol
         overflow="visible"
         id="symbol3161">
        <path
           style="stroke:none"
           d=""
           id="path7759" />
      </symbol>
      <symbol
         overflow="visible"
         id="symbol5477">
        <path
           style="stroke:none"
           d="m 0.84375,-0.4375 c -0.015625,0.09375 -0.0625,0.265625 -0.0625,0.28125 0,0.15625 0.125,0.21875 0.234375,0.21875 0.125,0 0.234375,-0.078125 0.28125,-0.140625 0.03125,-0.0625 0.078125,-0.296875 0.125,-0.4375 0.03125,-0.125 0.109375,-0.453125 0.140625,-0.625 0.046875,-0.15625 0.09375,-0.3125 0.125,-0.46875 0.078125,-0.28125 0.09375,-0.34375 0.296875,-0.625 C 2.171875,-2.515625 2.5,-2.875 3.03125,-2.875 c 0.390625,0 0.40625,0.359375 0.40625,0.484375 0,0.421875 -0.296875,1.1875 -0.40625,1.484375 -0.078125,0.203125 -0.109375,0.265625 -0.109375,0.375 0,0.375 0.296875,0.59375 0.65625,0.59375 0.703125,0 1,-0.953125 1,-1.0625 0,-0.09375 -0.078125,-0.09375 -0.109375,-0.09375 -0.09375,0 -0.09375,0.046875 -0.125,0.125 C 4.1875,-0.40625 3.875,-0.125 3.609375,-0.125 c -0.15625,0 -0.1875,-0.09375 -0.1875,-0.25 0,-0.15625 0.046875,-0.25 0.171875,-0.5625 0.078125,-0.21875 0.359375,-0.953125 0.359375,-1.34375 0,-0.671875 -0.53125,-0.796875 -0.90625,-0.796875 -0.578125,0 -0.96875,0.359375 -1.171875,0.640625 -0.046875,-0.484375 -0.453125,-0.640625 -0.75,-0.640625 -0.296875,0 -0.453125,0.21875 -0.546875,0.375 -0.15625,0.265625 -0.25,0.65625 -0.25,0.703125 0,0.078125 0.09375,0.078125 0.125,0.078125 0.09375,0 0.09375,-0.015625 0.140625,-0.203125 0.109375,-0.40625 0.25,-0.75 0.515625,-0.75 0.1875,0 0.234375,0.15625 0.234375,0.34375 0,0.125 -0.0625,0.390625 -0.125,0.578125 -0.046875,0.1875 -0.109375,0.46875 -0.140625,0.625 z m 0,0"
           id="path4369" />
      </symbol>
    </g>
    <g
       id="g4633">
      <symbol
         overflow="visible"
         id="symbol6321">
        <path
           style="stroke:none;"
           d=""
           id="path3977" />
      </symbol>
      <symbol
         overflow="visible"
         id="symbol4111">
        <path
           style="stroke:none;"
           d="M 5.0625 -2.703125 C 4.53125 -3.375 4.40625 -3.53125 4.09375 -3.78125 C 3.53125 -4.234375 2.984375 -4.40625 2.46875 -4.40625 C 1.3125 -4.40625 0.546875 -3.3125 0.546875 -2.140625 C 0.546875 -1 1.28125 0.109375 2.4375 0.109375 C 3.578125 0.109375 4.40625 -0.796875 4.890625 -1.59375 C 5.4375 -0.921875 5.546875 -0.765625 5.859375 -0.515625 C 6.421875 -0.0625 6.984375 0.109375 7.484375 0.109375 C 8.65625 0.109375 9.40625 -0.984375 9.40625 -2.15625 C 9.40625 -3.296875 8.671875 -4.40625 7.53125 -4.40625 C 6.375 -4.40625 5.546875 -3.5 5.0625 -2.703125 Z M 5.328125 -2.359375 C 5.734375 -3.078125 6.46875 -4.09375 7.59375 -4.09375 C 8.65625 -4.09375 9.1875 -3.046875 9.1875 -2.15625 C 9.1875 -1.171875 8.515625 -0.375 7.640625 -0.375 C 7.0625 -0.375 6.625 -0.78125 6.40625 -1 C 6.15625 -1.265625 5.9375 -1.578125 5.328125 -2.359375 Z M 4.640625 -1.9375 C 4.234375 -1.21875 3.484375 -0.203125 2.359375 -0.203125 C 1.3125 -0.203125 0.765625 -1.25 0.765625 -2.140625 C 0.765625 -3.125 1.4375 -3.921875 2.3125 -3.921875 C 2.890625 -3.921875 3.34375 -3.515625 3.546875 -3.296875 C 3.796875 -3.03125 4.03125 -2.71875 4.640625 -1.9375 Z M 4.640625 -1.9375 "
           id="path1831" />
      </symbol>
    </g>
  </defs>
  <g
     inkscape:groupmode="layer"
     id="layer2"
     inkscape:label="bottom"
     transform="translate(0.54510587,2.3540913)">
    <rect
       style="fill:#f88e1e;fill-opacity:1;stroke:#000000;stroke-width:0.3;stroke-linecap:round;stroke-opacity:1;paint-order:markers stroke fill"
       id="rect919"
       width="13.880226"
       height="11.185058"
       x="-0.39510587"
       y="-2.2040913"
       ry="0" />
  </g>
  <g
     inkscape:label="Layer 1"
     inkscape:groupmode="layer"
     id="layer1"
     transform="translate(-60.1842, -166.987)">
    <g
       inkscape:label=""
       transform="matrix(1.4166863,0,0,1.4166863,-69.937255,59.694421)"
       id="g1327"
       style="stroke-width:0.705873">
      <g
         id="g8757"
         style="stroke-width:0.705873">
        <g
           style="fill:#000000;fill-opacity:1;stroke-width:0.705873"
           id="g5704">
          <use
             xlink:href="#symbol4111"
             x="91.925003"
             y="81.962997"
             id="use4093"
             width="100%"
             height="100%"
             style="stroke-width:0.705873" />
        </g>
      </g>
    </g>
  </g>
</svg>
